<?xml version="1.0" encoding="UTF-8"?>
<svg width="33px" height="33px" viewBox="0 0 33 33" version="1.1" xmlns="http://www.w3.org/2000/svg" xmlns:xlink="http://www.w3.org/1999/xlink">
    <!-- Generator: Sketch 50.2 (55047) - http://www.bohemiancoding.com/sketch -->
    <title>icons8-linkedin@1x</title>
    <desc>Created with Sketch.</desc>
    <defs></defs>
    <g id="Page-1" stroke="none" stroke-width="1" fill="none" fill-rule="evenodd">
        <g id="icons8-linkedin@1x" fill-rule="nonzero">
            <path d="M33,28.4166667 C33,30.9485 30.9485,33 28.4166667,33 L4.58333333,33 C2.05241667,33 0,30.9485 0,28.4166667 L0,4.58333333 C0,2.0515 2.05241667,0 4.58333333,0 L28.4166667,0 C30.9485,0 33,2.0515 33,4.58333333 L33,28.4166667 Z" id="Shape" fill="#08ACF1"></path>
            <g id="Group" transform="translate(5.500000, 5.500000)" fill="#FFFFFF">
                <rect id="Rectangle-path" x="0" y="6.41666667" width="4.58333333" height="15.5833333"></rect>
                <path d="M2.27791667,4.58333333 L2.25225,4.58333333 C0.884583333,4.58333333 0,3.564 0,2.29075 C0,0.99 0.912083333,0 2.3045,0 C3.69875,0 4.55766667,0.99 4.58333333,2.29075 C4.58333333,3.56308333 3.69875,4.58333333 2.27791667,4.58333333 Z" id="Shape"></path>
                <path d="M22,22 L17.4166667,22 L17.4166667,13.65925 C17.4166667,11.6444167 16.29375,10.2694167 14.4906667,10.2694167 C13.11475,10.2694167 12.3704167,11.1970833 12.00925,12.0935833 C11.87725,12.4144167 11.9166667,13.30175 11.9166667,13.75 L11.9166667,22 L7.33333333,22 L7.33333333,6.41666667 L11.9166667,6.41666667 L11.9166667,8.81466667 C12.5775833,7.79166667 13.6125,6.41666667 16.2598333,6.41666667 C19.5396667,6.41666667 21.9990833,8.47916667 21.9990833,13.0845 L22,22 Z" id="Shape"></path>
            </g>
        </g>
    </g>
</svg>