<?xml version="1.0" encoding="UTF-8"?>
<svg width="34px" height="34px" viewBox="0 0 34 34" version="1.1" xmlns="http://www.w3.org/2000/svg" xmlns:xlink="http://www.w3.org/1999/xlink">
    <!-- Generator: Sketch 50.2 (55047) - http://www.bohemiancoding.com/sketch -->
    <title>icons8-instagram_new_filled@1x</title>
    <desc>Created with Sketch.</desc>
    <defs></defs>
    <g id="Page-1" stroke="none" stroke-width="1" fill="none" fill-rule="evenodd">
        <g id="icons8-instagram_new_filled" fill="#08ACF1" fill-rule="nonzero">
            <path d="M10.0454545,0 C4.505,0 0,4.505 0,10.0454545 L0,23.9545455 C0,29.495 4.505,34 10.0454545,34 L23.9545455,34 C29.495,34 34,29.495 34,23.9545455 L34,10.0454545 C34,4.505 29.495,0 23.9545455,0 L10.0454545,0 Z M26.2727273,6.18181818 C27.1227273,6.18181818 27.8181818,6.87727273 27.8181818,7.72727273 C27.8181818,8.57727273 27.1227273,9.27272727 26.2727273,9.27272727 C25.4227273,9.27272727 24.7272727,8.57727273 24.7272727,7.72727273 C24.7272727,6.87727273 25.4227273,6.18181818 26.2727273,6.18181818 Z M17,8.5 C21.6904545,8.5 25.5,12.3095455 25.5,17 C25.5,21.6904545 21.6904545,25.5 17,25.5 C12.3095455,25.5 8.5,21.6904545 8.5,17 C8.5,12.3095455 12.3095455,8.5 17,8.5 Z M17,10.0454545 C13.1672727,10.0454545 10.0454545,13.1672727 10.0454545,17 C10.0454545,20.8327273 13.1672727,23.9545455 17,23.9545455 C20.8327273,23.9545455 23.9545455,20.8327273 23.9545455,17 C23.9545455,13.1672727 20.8327273,10.0454545 17,10.0454545 Z" id="Shape"></path>
        </g>
    </g>
</svg>