<?xml version="1.0" encoding="UTF-8"?>
<svg width="35px" height="30px" viewBox="0 0 35 30" version="1.1" xmlns="http://www.w3.org/2000/svg" xmlns:xlink="http://www.w3.org/1999/xlink">
    <!-- Generator: Sketch 50.2 (55047) - http://www.bohemiancoding.com/sketch -->
    <title>icons8-telegram_app</title>
    <desc>Created with Sketch.</desc>
    <defs></defs>
    <g id="Page-1" stroke="none" stroke-width="1" fill="none" fill-rule="evenodd">
        <g id="icons8-telegram_app" fill-rule="nonzero">
            <path d="M34.0661818,1.14277273 L28.6876818,28.6087727 C28.6876818,28.6087727 27.9352273,30.5138636 25.8666818,29.5993636 L13.454,19.9611818 L8.94068182,17.7517273 L1.34286364,15.1618182 C1.34286364,15.1618182 0.176136364,14.7433182 0.0634090909,13.8288182 C-0.0493181818,12.9143182 1.3795,12.4197273 1.3795,12.4197273 L31.5847727,0.419909091 C31.5833636,0.4185 34.0661818,-0.686227273 34.0661818,1.14277273 Z" id="Shape" fill="#08ACF1"></path>
            <path d="M12.4986364,28.2987727 C12.4986364,28.2987727 12.1365,28.2649545 11.6841818,26.8164091 C11.2332727,25.3692727 8.93786364,17.7503182 8.93786364,17.7503182 L27.1813636,6.01681818 C27.1813636,6.01681818 28.2339545,5.36863636 28.1973182,6.01681818 C28.1973182,6.01681818 28.3847273,6.13095455 27.8210909,6.665 C27.2574545,7.19904545 13.4892273,19.7315 13.4892273,19.7315" id="Shape" fill="#D2E5F1"></path>
            <path d="M18.2125,23.6558182 L13.3032273,28.1888636 C13.3032273,28.1888636 12.9199545,28.4833636 12.5000455,28.2987727 L13.4399091,19.8780455" id="Shape" fill="#08ACF1"></path>
        </g>
    </g>
</svg>