<?xml version="1.0" encoding="UTF-8"?>
<svg width="26px" height="33px" viewBox="0 0 26 33" version="1.1" xmlns="http://www.w3.org/2000/svg" xmlns:xlink="http://www.w3.org/1999/xlink">
    <!-- Generator: Sketch 50.2 (55047) - http://www.bohemiancoding.com/sketch -->
    <title>icons8-bitcoin</title>
    <desc>Created with Sketch.</desc>
    <defs></defs>
    <g id="Page-1" stroke="none" stroke-width="1" fill="none" fill-rule="evenodd">
        <g id="Art-pro-Updated" transform="translate(-360.000000, -16549.000000)" fill="#FFFFFF" fill-rule="nonzero">
            <g id="Group-4" transform="translate(360.000000, 16548.000000)">
                <g id="icons8-bitcoin" transform="translate(14.057963, 17.494718) rotate(10.000000) translate(-14.057963, -17.494718) translate(2.557963, 1.757876)">
                    <path d="M3.63157895,27.8421053 L3.63157895,3.63157895 L13.5566842,3.63157895 C16.4740526,3.63157895 18.6820526,4.19447368 20.1903684,5.32026316 C21.6986842,6.44605263 22.4504211,8.096 22.4504211,10.2664737 C22.4504211,11.4527895 22.1477895,12.4986842 21.5473684,13.4017368 C20.9421053,14.3047895 20.1007895,14.9669474 19.0222105,15.3882105 C20.2521053,15.7005263 21.2205263,16.3239474 21.9298947,17.2705789 C22.6404737,18.2099474 23,19.3587368 23,20.7254211 C23,23.0520526 22.2627895,24.8157895 20.7871579,26.0117895 C19.3115263,27.2077895 17.2124737,27.8178947 14.4839474,27.8421053 L3.63157895,27.8421053 Z M8.47368421,13.3157895 L13.7552105,13.3157895 C16.2525263,13.2734211 17.5054211,12.3183158 17.5054211,10.3560526 C17.5054211,9.25931579 17.1882632,8.46884211 16.5551579,7.98705263 C15.9220526,7.50526316 14.9233684,7.26315789 13.5566842,7.26315789 L8.47368421,7.26315789 L8.47368421,13.3157895 Z M8.47368421,16.9473684 L8.47368421,24.2105263 L14.3374737,24.2105263 C15.5007895,24.2105263 18.1578947,23.6427895 18.1578947,21.0522632 C18.1578947,18.4617368 16.8057368,16.9800526 14.5263158,16.9473684 L8.47368421,16.9473684 Z" id="Shape"></path>
                    <polygon id="Shape" points="7.26315789 0 10.8947368 0 10.8947368 6.05263158 7.26315789 6.05263158"></polygon>
                    <polygon id="Shape-Copy-4" transform="translate(3.026316, 5.447368) rotate(-90.000000) translate(-3.026316, -5.447368) " points="1.21052632 2.42105263 4.84210526 2.42105263 4.84210526 8.47368421 1.21052632 8.47368421"></polygon>
                    <polygon id="Shape-Copy-5" transform="translate(3.026316, 26.026316) rotate(-90.000000) translate(-3.026316, -26.026316) " points="1.21052632 23 4.84210526 23 4.84210526 29.0526316 1.21052632 29.0526316"></polygon>
                    <polygon id="Shape" points="13.3157895 0 16.9473684 0 16.9473684 6.05263158 13.3157895 6.05263158"></polygon>
                    <polygon id="Shape" points="7.26315789 25.4210526 10.8947368 25.4210526 10.8947368 31.4736842 7.26315789 31.4736842"></polygon>
                    <polygon id="Shape" points="13.3157895 25.4210526 16.9473684 25.4210526 16.9473684 31.4736842 13.3157895 31.4736842"></polygon>
                </g>
            </g>
        </g>
    </g>
</svg>