<?xml version="1.0" encoding="UTF-8"?>
<svg width="37px" height="33px" viewBox="0 0 37 33" version="1.1" xmlns="http://www.w3.org/2000/svg" xmlns:xlink="http://www.w3.org/1999/xlink">
    <!-- Generator: Sketch 50.2 (55047) - http://www.bohemiancoding.com/sketch -->
    <title>icons8-reddit_filled</title>
    <desc>Created with Sketch.</desc>
    <defs></defs>
    <g id="Page-1" stroke="none" stroke-width="1" fill="none" fill-rule="evenodd">
        <g id="icons8-reddit_filled" fill="#08ACF1" fill-rule="nonzero">
            <path d="M21.746666,0 C20.1114184,0 18.2000907,1.28332046 17.9118744,7.0142706 C18.1545827,7.00820328 18.3942574,6.98999977 18.6399994,6.98999977 C18.9130466,6.98999977 19.1951949,7.00516885 19.4652077,7.0142706 C19.6502726,3.57084604 20.4694136,1.55333328 21.746666,1.55333328 C22.2927597,1.55333328 22.6022132,1.85065137 23.1786451,2.47562492 C23.8521611,3.20678355 24.7319784,4.15638046 26.4552075,4.51437485 C26.427903,4.31110644 26.4066658,4.09266894 26.4066658,3.88333321 C26.4066658,3.55567697 26.4400384,3.24622424 26.5037491,2.93677074 C25.4358325,2.64552075 24.871536,2.02964818 24.3193742,1.43197912 C23.7035016,0.764531225 22.9966138,0 21.746666,0 Z M31.0666656,0.776666641 C29.3525383,0.776666641 27.9599991,2.17223951 27.9599991,3.88333321 C27.9599991,5.5944269 29.3525383,6.98999977 31.0666656,6.98999977 C32.780793,6.98999977 34.1733322,5.5944269 34.1733322,3.88333321 C34.1733322,2.17223951 32.780793,0.776666641 31.0666656,0.776666641 Z M18.6399994,8.54333305 C9.21684904,8.54333305 1.55333328,13.3428906 1.55333328,20.1933327 C1.55333328,27.0437755 9.21684904,32.6199989 18.6399994,32.6199989 C28.0631505,32.6199989 35.7266655,27.0437755 35.7266655,20.1933327 C35.7266655,13.3428906 28.0631505,8.54333305 18.6399994,8.54333305 Z M5.04833317,9.27145803 C3.91367214,9.27145803 2.83665375,9.73563751 2.0144791,10.5578122 C0.676549651,11.8957416 0.400468737,13.8192055 1.16499996,15.4119787 C2.33910168,13.1396222 4.3596481,11.2009892 6.96572894,9.75687468 C6.3741272,9.45652293 5.71881472,9.27145803 5.04833317,9.27145803 Z M32.2316656,9.27145803 C31.5611841,9.27145803 30.9058716,9.45652293 30.3142698,9.75687468 C32.9203507,11.2009892 34.9408971,13.1396222 36.1149988,15.4119787 C36.87953,13.8192055 36.6034491,11.8957416 35.2655197,10.5578122 C34.443345,9.73563751 33.3663274,9.27145803 32.2316656,9.27145803 Z M12.4266663,15.5333328 C13.7130204,15.5333328 14.7566662,16.5769786 14.7566662,17.8633327 C14.7566662,19.1496869 13.7130204,20.1933327 12.4266663,20.1933327 C11.1403121,20.1933327 10.0966663,19.1496869 10.0966663,17.8633327 C10.0966663,16.5769786 11.1403121,15.5333328 12.4266663,15.5333328 Z M24.8533325,15.5333328 C26.1396866,15.5333328 27.1833324,16.5769786 27.1833324,17.8633327 C27.1833324,19.1496869 26.1396866,20.1933327 24.8533325,20.1933327 C23.5669784,20.1933327 22.5233326,19.1496869 22.5233326,17.8633327 C22.5233326,16.5769786 23.5669784,15.5333328 24.8533325,15.5333328 Z M11.6985413,24.0766659 C11.8927079,24.1100385 12.0838409,24.2192572 12.2082288,24.3921867 C12.290143,24.5074735 14.1104555,26.9406241 18.6399994,26.9406241 C23.2302204,26.9406241 25.0535673,24.4407284 25.07177,24.4164575 C25.317512,24.0675641 25.8120304,23.9735152 26.1639575,24.2222909 C26.5128509,24.4680329 26.5795953,24.9382804 26.3338533,25.2902075 C26.2428381,25.4206634 24.0281242,28.4939574 18.6399994,28.4939574 C13.2488409,28.4939574 11.0371615,25.4206634 10.9461455,25.2902075 C10.7004035,24.9382804 10.7641142,24.4680329 11.1160413,24.2222909 C11.2920052,24.0979031 11.5043746,24.0432933 11.6985413,24.0766659 Z" id="Shape"></path>
        </g>
    </g>
</svg>