<?xml version="1.0" encoding="UTF-8"?>
<svg width="33px" height="32px" viewBox="0 0 33 32" version="1.1" xmlns="http://www.w3.org/2000/svg" xmlns:xlink="http://www.w3.org/1999/xlink">
    <!-- Generator: Sketch 50.2 (55047) - http://www.bohemiancoding.com/sketch -->
    <title>icons8-github_filled</title>
    <desc>Created with Sketch.</desc>
    <defs>
        <linearGradient x1="100%" y1="0%" x2="0%" y2="100%" id="linearGradient-1">
            <stop stop-color="#0A98EB" offset="0%"></stop>
            <stop stop-color="#00DCFF" offset="100%"></stop>
        </linearGradient>
    </defs>
    <g id="Page-1" stroke="none" stroke-width="1" fill="none" fill-rule="evenodd">
        <g id="icons8-github_filled" fill="url(#linearGradient-1)" fill-rule="nonzero">
            <path d="M11.2138782,31.8400002 C11.7187903,31.6226962 12.0724418,31.1206246 12.0724418,30.5361764 L12.0724418,26.7014008 C12.0724418,26.5615025 12.0838041,26.415923 12.1015577,26.2682132 C12.0916157,26.2710537 12.0823839,26.2731842 12.0724418,26.2753146 C12.0724418,26.2753146 9.94201093,26.2753146 9.51592475,26.2753146 C8.45070929,26.2753146 7.52752256,25.8492284 7.10143638,24.9970561 C6.60433583,24.0738693 6.39129274,22.5115533 5.11303419,21.659381 C4.8999911,21.5173522 5.04201983,21.3043091 5.46810601,21.3043091 C5.8941922,21.3753235 6.81737892,21.9434384 7.38549384,22.7245964 C8.02462311,23.5057544 8.66375238,24.1448837 9.7999822,24.1448837 C11.5661094,24.1448837 12.5127309,24.0561157 13.0822661,23.750754 C13.7455403,22.7643645 14.663756,22.0144528 15.62316,22.0144528 L15.62316,21.9966992 C11.5980659,21.867453 9.02663578,20.5295424 7.82933361,18.4637346 C5.22665718,18.4935606 2.96058883,18.7513428 1.66741726,18.9658061 C1.62622893,18.7335892 1.59072175,18.4999519 1.56018557,18.2648944 C2.83631369,18.0546919 4.99941121,17.8054314 7.48633423,17.7578518 C7.40679814,17.5618522 7.33791421,17.3608815 7.27968243,17.1549399 C4.78636812,17.0285343 2.6346329,17.1272443 1.46573647,17.2238238 C1.4515336,16.9880561 1.43235972,16.7529986 1.42951914,16.5143903 C2.600546,16.4185209 4.69404945,16.3226515 7.12345083,16.4355644 C7.06734949,16.0804925 7.03113216,15.7176091 7.03113216,15.3398127 C7.03113216,14.1325685 7.45721834,12.85431 8.23837634,11.7890945 C7.88330453,10.5818503 7.38620398,8.02533325 8.38040507,7.10214652 C10.2977929,7.10214652 11.6470658,8.02533325 12.2861951,8.59344816 C13.4927291,8.09563747 14.842002,7.81158002 16.3333037,7.81158002 C17.8246053,7.81158002 19.1738782,8.09563747 20.310108,8.59273802 C20.9492373,8.02462311 22.2985102,7.10143638 24.2158981,7.10143638 C25.2811135,8.09563747 24.7129986,10.6521546 24.3579268,11.7883844 C25.1390848,12.8535998 25.565171,14.060844 25.4941566,15.3391026 C25.4941566,15.6828121 25.4622001,16.0144492 25.4160408,16.339695 C27.9008334,16.2175503 30.0511483,16.3155501 31.2420592,16.4121296 C31.2406389,16.651448 31.2186245,16.8850853 31.2058419,17.1215631 C30.0191919,17.0235633 27.814906,16.9227229 25.2697512,17.0583603 C25.2065484,17.2969686 25.1298529,17.5291856 25.0389545,17.7543011 C27.5571239,17.7869677 29.7720619,18.030547 31.1092623,18.2435901 C31.0787262,18.4793577 31.043219,18.712995 31.0020307,18.9445018 C29.644236,18.7271979 27.3298779,18.4729665 24.6966653,18.4601839 C23.5142761,20.5039773 20.9897155,21.8369169 17.0434473,21.9924383 L17.0434473,22.0144528 C18.8898208,22.0144528 20.5941655,24.784013 20.5941655,26.7014008 L20.5941655,30.5361764 C20.5941655,31.1206246 20.947817,31.6226962 21.4527292,31.8400002 C27.958355,29.6868446 32.6666073,23.5512036 32.6666073,16.3333037 C32.6666073,7.32726206 25.3400554,0 16.3333037,0 C7.32655191,0 0,7.32726206 0,16.3333037 C0,23.5512036 4.70825232,29.6868446 11.2138782,31.8400002 Z" id="Shape"></path>
        </g>
    </g>
</svg>