<?xml version="1.0" encoding="UTF-8"?>
<svg width="38px" height="31px" viewBox="0 0 38 31" version="1.1" xmlns="http://www.w3.org/2000/svg" xmlns:xlink="http://www.w3.org/1999/xlink">
    <!-- Generator: Sketch 50.2 (55047) - http://www.bohemiancoding.com/sketch -->
    <title>icons8-twitter_filled</title>
    <desc>Created with Sketch.</desc>
    <defs></defs>
    <g id="Page-1" stroke="none" stroke-width="1" fill="none" fill-rule="evenodd">
        <g id="icons8-twitter_filled" fill="#08ACF1" fill-rule="nonzero">
            <path d="M37.6889881,4.01339286 C36.325242,4.61886198 34.8634673,5.02539081 33.3267301,5.20991462 C34.8951825,4.2699961 36.1003532,2.78227288 36.6654574,1.01199795 C35.2007997,1.87983631 33.5718006,2.5112539 31.8447729,2.85146931 C30.4608443,1.37527883 28.4887461,0.455543524 26.3061756,0.455543524 C22.1140257,0.455543524 18.7147509,3.85193452 18.7147509,8.04408519 C18.7147509,8.63802083 18.7839474,9.21754074 18.9136905,9.7739959 C12.6052827,9.45684524 7.01478776,6.43526786 3.26953162,1.8423551 C2.61504855,2.96679669 2.24311793,4.2699961 2.24311793,5.6596914 C2.24311793,8.29203869 3.58091555,10.6158858 5.61932645,11.9796319 C4.37379074,11.9392669 3.20321819,11.5961685 2.1796875,11.0281806 C2.1796875,11.0598958 2.1796875,11.091611 2.1796875,11.1233263 C2.1796875,14.8022697 4.79761905,17.8670943 8.26609021,18.5677083 C7.63178962,18.7406994 6.96000781,18.8329613 6.26804352,18.8329613 C5.77790179,18.8329613 5.30217652,18.7868304 4.837984,18.6945685 C5.806734,21.7074961 8.60918936,23.9073661 11.9277342,23.9679128 C9.33286812,26.0034414 6.06045424,27.2143789 2.50260417,27.2143789 C1.88848605,27.2143789 1.28590067,27.1797807 0.694847433,27.1077013 C4.05087407,29.2643233 8.04120145,30.518508 12.328497,30.518508 C26.2888769,30.518508 33.9235495,18.9540554 33.9235495,8.92633929 C33.9235495,8.59765662 33.9148997,8.26609021 33.903367,7.94317355 C35.3853235,6.8735119 36.6712241,5.53571429 37.6889881,4.01339286 Z" id="Shape"></path>
        </g>
    </g>
</svg>