<?xml version="1.0" encoding="UTF-8"?>
<svg width="35px" height="30px" viewBox="0 0 35 30" version="1.1" xmlns="http://www.w3.org/2000/svg" xmlns:xlink="http://www.w3.org/1999/xlink">
    <!-- Generator: Sketch 50.2 (55047) - http://www.bohemiancoding.com/sketch -->
    <title>icons8-medium_logo_filled</title>
    <desc>Created with Sketch.</desc>
    <defs></defs>
    <g id="Page-1" stroke="none" stroke-width="1" fill="none" fill-rule="evenodd">
        <g id="icons8-medium_logo_filled" fill="#08ACF1" fill-rule="nonzero">
            <path d="M11.6666667,28.8151042 C11.6666667,29.5572917 11.2695317,30 10.70638,30 C10.5078125,30 10.2864583,29.9446617 10.0520833,29.8274742 L0.9700525,25.227865 C0.436198333,24.9576825 0,24.2415367 0,23.6393233 L0,1.09375 C0,0.498046667 0.315755,0.146484167 0.768229167,0.146484167 C0.927734167,0.146484167 1.10677083,0.1888025 1.2923175,0.283203333 L1.61132833,0.445963333 C1.61132833,0.445963333 1.61458333,0.445963333 1.61458333,0.445963333 L11.6243492,5.51432333 C11.640625,5.52408833 11.6536458,5.540365 11.6666667,5.55338583 L11.6666667,28.8151042 Z M22.1549483,1.56901083 L22.7669275,0.563150833 C22.9850258,0.205078333 23.3854167,0 23.7923175,0 C23.8867192,0 23.984375,0.0130208333 24.0787758,0.0390625 C24.1503908,0.0553383333 24.2252608,0.08138 24.3033858,0.1204425 L34.8600258,5.465495 C34.8632817,5.465495 34.8632817,5.46875 34.8632817,5.46875 L34.8730467,5.472005 C34.8795575,5.47526083 34.8795575,5.48502583 34.8860675,5.48828167 C34.9381508,5.53059917 34.9609375,5.60221333 34.92513,5.6608075 L24.4108075,22.965495 L23.3365883,24.7298175 L16.3704425,11.08724 L22.1549483,1.56901083 Z M13.3333333,19.6712242 L13.3333333,8.80208333 L20.8170575,23.4635417 L14.0852867,20.0553383 L13.3333333,19.6712242 Z M35,28.8151042 C35,29.5117192 34.5865883,29.9088542 33.977865,29.9088542 C33.7044275,29.9088542 33.3919275,29.8307292 33.0631508,29.6647133 L31.55599,28.89974 L24.8242192,25.4915367 L35,8.746745 L35,28.8151042 Z" id="Shape"></path>
        </g>
    </g>
</svg>