<svg xmlns="http://www.w3.org/2000/svg" xmlns:xlink="http://www.w3.org/1999/xlink" viewBox="0 0 57.27 80.99"><defs><style>.cls-1,.cls-2,.cls-3,.cls-4,.cls-5,.cls-6,.cls-7,.cls-8,.cls-9{fill:none;stroke-miterlimit:10;stroke-width:2px;}.cls-1{stroke:url(#New_Gradient_Swatch_1);}.cls-2{stroke:url(#New_Gradient_Swatch_1-2);}.cls-3{stroke:url(#New_Gradient_Swatch_1-3);}.cls-4{stroke:url(#New_Gradient_Swatch_1-4);}.cls-5{stroke:url(#New_Gradient_Swatch_1-5);}.cls-6{stroke:url(#New_Gradient_Swatch_1-6);}.cls-7{stroke:url(#New_Gradient_Swatch_1-7);}.cls-8{stroke:url(#New_Gradient_Swatch_1-8);}.cls-9{stroke:url(#New_Gradient_Swatch_1-9);}</style><linearGradient id="New_Gradient_Swatch_1" x1="5.06" y1="15.36" x2="27.95" y2="15.36" gradientUnits="userSpaceOnUse"><stop offset="0" stop-color="#00d7ff"/><stop offset="0.21" stop-color="#01cefc"/><stop offset="0.55" stop-color="#05b4f2"/><stop offset="0.98" stop-color="#0c8be3"/><stop offset="0.99" stop-color="#0c8ae3"/></linearGradient><linearGradient id="New_Gradient_Swatch_1-2" x1="0" y1="16.19" x2="32.38" y2="16.19" xlink:href="#New_Gradient_Swatch_1"/><linearGradient id="New_Gradient_Swatch_1-3" x1="-4823.49" y1="3840.88" x2="-4751.49" y2="3840.88" gradientTransform="translate(3874.58 4832.48) rotate(90)" xlink:href="#New_Gradient_Swatch_1"/><linearGradient id="New_Gradient_Swatch_1-4" x1="18.86" y1="38.73" x2="48.02" y2="38.73" xlink:href="#New_Gradient_Swatch_1"/><linearGradient id="New_Gradient_Swatch_1-5" x1="18.86" y1="44.99" x2="48.02" y2="44.99" xlink:href="#New_Gradient_Swatch_1"/><linearGradient id="New_Gradient_Swatch_1-6" x1="18.86" y1="51.25" x2="48.02" y2="51.25" xlink:href="#New_Gradient_Swatch_1"/><linearGradient id="New_Gradient_Swatch_1-7" x1="18.86" y1="57.51" x2="48.02" y2="57.51" xlink:href="#New_Gradient_Swatch_1"/><linearGradient id="New_Gradient_Swatch_1-8" x1="18.86" y1="63.77" x2="48.02" y2="63.77" xlink:href="#New_Gradient_Swatch_1"/><linearGradient id="New_Gradient_Swatch_1-9" x1="18.86" y1="70.03" x2="48.02" y2="70.03" xlink:href="#New_Gradient_Swatch_1"/></defs><title>Icon 8</title><g id="Слой_2" data-name="Слой 2"><g id="Layer_1" data-name="Layer 1"><polygon class="cls-1" points="16.5 6.73 19.38 12.55 25.8 13.48 21.15 18.01 22.25 24.41 16.5 21.39 10.76 24.41 11.86 18.01 7.21 13.48 13.63 12.55 16.5 6.73"/><circle class="cls-2" cx="16.19" cy="16.19" r="15.19"/><polyline class="cls-3" points="11.12 36.31 11.12 79.99 56.27 79.99 56.27 9.99 36.2 9.99"/><line class="cls-4" x1="18.86" y1="38.73" x2="48.02" y2="38.73"/><line class="cls-5" x1="18.86" y1="44.99" x2="48.02" y2="44.99"/><line class="cls-6" x1="18.86" y1="51.25" x2="48.02" y2="51.25"/><line class="cls-7" x1="18.86" y1="57.51" x2="48.02" y2="57.51"/><line class="cls-8" x1="18.86" y1="63.77" x2="48.02" y2="63.77"/><line class="cls-9" x1="18.86" y1="70.03" x2="48.02" y2="70.03"/></g></g></svg>