<svg xmlns="http://www.w3.org/2000/svg" xmlns:xlink="http://www.w3.org/1999/xlink" viewBox="0 0 45 46.98"><defs><style>.cls-1{fill:none;stroke-miterlimit:10;stroke:url(#linear-gradient);}</style><linearGradient id="linear-gradient" y1="23.49" x2="45" y2="23.49" gradientUnits="userSpaceOnUse"><stop offset="0.15" stop-color="#662d8c"/><stop offset="0.28" stop-color="#6a2f8d"/><stop offset="0.42" stop-color="#77368f"/><stop offset="0.56" stop-color="#8c4093"/><stop offset="0.7" stop-color="#aa5098"/><stop offset="0.85" stop-color="#d0639f"/><stop offset="1" stop-color="#fe7aa7"/><stop offset="1" stop-color="#ff7ba7"/></linearGradient></defs><title>2. filter_1</title><g id="Слой_2" data-name="Слой 2"><g id="Layer_1" data-name="Layer 1"><g id="surface1"><path class="cls-1" d="M1.31.5a1,1,0,0,0-.81,1v3a1,1,0,0,0,.28.69L16.5,21.88V39.5a1,1,0,0,0,.5.84l10,6a1,1,0,0,0,1.5-.84V21.88L44.06,5.34l0,0,.13-.12A.61.61,0,0,0,44.34,5L44.41,5a1.16,1.16,0,0,0,.09-.41V1.5a1,1,0,0,0-1-1H1.31Zm1.19,2h40V4.12L27.06,20.5H17.94L2.5,4.12Zm16,20h8V43.75L18.5,39Z"/></g></g></g></svg>