<svg xmlns="http://www.w3.org/2000/svg" xmlns:xlink="http://www.w3.org/1999/xlink" viewBox="0 0 72 75"><defs><style>.cls-1,.cls-10,.cls-2,.cls-3,.cls-5,.cls-6,.cls-7,.cls-8,.cls-9{fill:none;stroke-miterlimit:10;stroke-width:2px;}.cls-1{stroke:url(#New_Gradient_Swatch_1);}.cls-2{stroke:url(#New_Gradient_Swatch_1-2);}.cls-3{stroke:url(#New_Gradient_Swatch_1-3);}.cls-4{fill:url(#New_Gradient_Swatch_1-4);}.cls-5{stroke:url(#linear-gradient);}.cls-6{stroke:url(#linear-gradient-2);}.cls-7{stroke:url(#linear-gradient-3);}.cls-8{stroke:url(#New_Gradient_Swatch_1-5);}.cls-9{stroke-dasharray:4.67 4.67;stroke:url(#New_Gradient_Swatch_1-6);}.cls-10{stroke:url(#New_Gradient_Swatch_1-7);}</style><linearGradient id="New_Gradient_Swatch_1" x1="35.75" y1="36.5" x2="67" y2="36.5" gradientUnits="userSpaceOnUse"><stop offset="0" stop-color="#00d7ff"/><stop offset="0.21" stop-color="#01cefc"/><stop offset="0.55" stop-color="#05b4f2"/><stop offset="0.98" stop-color="#0c8be3"/><stop offset="0.99" stop-color="#0c8ae3"/></linearGradient><linearGradient id="New_Gradient_Swatch_1-2" x1="35.87" x2="72" xlink:href="#New_Gradient_Swatch_1"/><linearGradient id="New_Gradient_Swatch_1-3" x1="35.75" y1="41.35" x2="62" y2="41.35" xlink:href="#New_Gradient_Swatch_1"/><linearGradient id="New_Gradient_Swatch_1-4" x1="44" y1="30.5" x2="51" y2="30.5" xlink:href="#New_Gradient_Swatch_1"/><linearGradient id="linear-gradient" x1="5" y1="36.5" x2="36" y2="36.5" gradientUnits="userSpaceOnUse"><stop offset="0.15" stop-color="#662d8c"/><stop offset="0.28" stop-color="#6a2f8d"/><stop offset="0.42" stop-color="#77368f"/><stop offset="0.56" stop-color="#8c4093"/><stop offset="0.7" stop-color="#aa5098"/><stop offset="0.85" stop-color="#d0639f"/><stop offset="1" stop-color="#fe7aa7"/><stop offset="1" stop-color="#ff7ba7"/></linearGradient><linearGradient id="linear-gradient-2" x1="0" x2="35.87" xlink:href="#linear-gradient"/><linearGradient id="linear-gradient-3" x1="9.85" y1="41.96" x2="36.29" y2="41.96" xlink:href="#linear-gradient"/><linearGradient id="New_Gradient_Swatch_1-5" x1="35" y1="1.25" x2="37" y2="1.25" xlink:href="#New_Gradient_Swatch_1"/><linearGradient id="New_Gradient_Swatch_1-6" x1="35" y1="38.67" x2="37" y2="38.67" xlink:href="#New_Gradient_Swatch_1"/><linearGradient id="New_Gradient_Swatch_1-7" x1="35" y1="73.75" x2="37" y2="73.75" xlink:href="#New_Gradient_Swatch_1"/></defs><title>Icon 4</title><g id="Слой_2" data-name="Слой 2"><g id="Layer_1" data-name="Layer 1"><polyline class="cls-1" points="35.75 19 66 19 66 54 35.88 54"/><polyline class="cls-2" points="35.88 14 71 14 71 59 36 59"/><path class="cls-3" d="M36,42.54C44.41,44.42,49.78,38,49.78,38S61,23,61,49H35.88"/><circle class="cls-4" cx="47.5" cy="30.5" r="3.5"/><polyline class="cls-5" points="36 54 6 54 6 19 35.88 19"/><polyline class="cls-6" points="35.88 59 1 59 1 14 35.88 14"/><path class="cls-7" d="M35.88,49H11s3.06-22,16.33-11a20.5,20.5,0,0,0,8.75,4.57"/><line class="cls-8" x1="36" x2="36" y2="2.5"/><line class="cls-9" x1="36" y1="7.17" x2="36" y2="70.17"/><line class="cls-10" x1="36" y1="72.5" x2="36" y2="75"/></g></g></svg>