<svg xmlns="http://www.w3.org/2000/svg" xmlns:xlink="http://www.w3.org/1999/xlink" viewBox="0 0 42.97 56.62"><defs><style>.cls-1,.cls-2,.cls-3,.cls-4{fill:none;stroke-miterlimit:10;stroke-width:2px;}.cls-1{stroke:url(#linear-gradient);}.cls-2{stroke:url(#linear-gradient-2);}.cls-3{stroke:url(#linear-gradient-3);}.cls-4{stroke:url(#linear-gradient-4);}</style><linearGradient id="linear-gradient" y1="38.99" x2="42.97" y2="38.99" gradientTransform="translate(60.48 17.51) rotate(90)" gradientUnits="userSpaceOnUse"><stop offset="0" stop-color="#4bf3b1"/><stop offset="0.13" stop-color="#54f4a8"/><stop offset="0.35" stop-color="#6ef68e"/><stop offset="0.63" stop-color="#97f965"/><stop offset="0.96" stop-color="#d0fe2c"/><stop offset="1" stop-color="#d8ff24"/></linearGradient><linearGradient id="linear-gradient-2" x1="5.6" y1="11.51" x2="37.37" y2="11.51" gradientTransform="matrix(1, 0, 0, 1, 0, 0)" xlink:href="#linear-gradient"/><linearGradient id="linear-gradient-3" x1="9.96" y1="13.36" x2="33.01" y2="13.36" gradientTransform="matrix(1, 0, 0, 1, 0, 0)" xlink:href="#linear-gradient"/><linearGradient id="linear-gradient-4" x1="13.67" y1="38.23" x2="29.3" y2="38.23" gradientTransform="matrix(1, 0, 0, 1, 0, 0)" xlink:href="#linear-gradient"/></defs><title>Icon 6</title><g id="Слой_2" data-name="Слой 2"><g id="Layer_1" data-name="Layer 1"><rect class="cls-1" x="4.86" y="18.51" width="33.25" height="40.97" rx="10.14" ry="10.14" transform="translate(-17.51 60.48) rotate(-90)"/><path class="cls-2" d="M36.37,23V15.88a14.89,14.89,0,0,0-29.77,0v6.81"/><path class="cls-3" d="M11,22.1V15.88a10.53,10.53,0,0,1,21,0v6.49"/><path class="cls-4" d="M24.91,27.64a6.81,6.81,0,1,0-6.85,11.78,6,6,0,0,0,.76.38,2.45,2.45,0,0,0,0,.27v7a2.69,2.69,0,1,0,5.37,0v-7a2.45,2.45,0,0,0,0-.27,6.81,6.81,0,0,0,.76-12.16Z"/></g></g></svg>