<svg xmlns="http://www.w3.org/2000/svg" xmlns:xlink="http://www.w3.org/1999/xlink" viewBox="0 0 45.68 45.68"><defs><style>.cls-1{fill:none;stroke-miterlimit:10;stroke:url(#New_Gradient_Swatch_1);}</style><linearGradient id="New_Gradient_Swatch_1" y1="22.84" x2="45.68" y2="22.84" gradientUnits="userSpaceOnUse"><stop offset="0" stop-color="#00d7ff"/><stop offset="0.21" stop-color="#01cefc"/><stop offset="0.55" stop-color="#05b4f2"/><stop offset="0.98" stop-color="#0c8be3"/><stop offset="0.99" stop-color="#0c8ae3"/></linearGradient></defs><title>1. Connect..._1</title><g id="Слой_2" data-name="Слой 2"><g id="Layer_1" data-name="Layer 1"><path class="cls-1" d="M16,.5C8.61.5,5.36,5.45,5.36,9.39A7.79,7.79,0,0,0,9.06,16a13,13,0,0,0,7,2,13.14,13.14,0,0,0,3.07-.37,12,12,0,0,0,8.58,3.29,12.81,12.81,0,0,0,7-2,8,8,0,0,0,.73-13,11.9,11.9,0,0,0-7.73-2.49,14.62,14.62,0,0,0-3.14.33A7.92,7.92,0,0,0,23.77,3,11.9,11.9,0,0,0,16,.5Zm0,1.94a10,10,0,0,1,6.48,2,6.14,6.14,0,0,1,.73.71h0a.94.94,0,0,0,.36.45A5.87,5.87,0,0,1,24.78,9.2,5.86,5.86,0,0,1,22,14.33,11,11,0,0,1,16,16a11.32,11.32,0,0,1-5.92-1.64,5.68,5.68,0,0,1-2.82-5C7.3,6.47,9.44,2.44,16,2.44ZM27.69,5.36a10,10,0,0,1,6.49,2,6,6,0,0,1,2.26,4.72,5.89,5.89,0,0,1-2.83,5.13A11.07,11.07,0,0,1,27.69,19a11,11,0,0,1-6.43-2A12.12,12.12,0,0,0,23,16,8,8,0,0,0,26.72,9.2a7.88,7.88,0,0,0-.93-3.71A14.07,14.07,0,0,1,27.69,5.36ZM3.9,16A3.17,3.17,0,0,0,.5,19a3.18,3.18,0,0,0,3.4,2.92A3.18,3.18,0,0,0,7.3,19,3.17,3.17,0,0,0,3.9,16Zm37.88,0A3.17,3.17,0,0,0,38.38,19a3.18,3.18,0,0,0,3.4,2.92A3.18,3.18,0,0,0,45.18,19,3.17,3.17,0,0,0,41.78,16ZM3.9,18c.92,0,1.46.56,1.46,1s-.54,1-1.46,1-1.46-.55-1.46-1S3,18,3.9,18Zm37.88,0c.92,0,1.45.56,1.45,1s-.53,1-1.45,1-1.46-.55-1.46-1S40.86,18,41.78,18ZM12.19,21.87a7.61,7.61,0,0,0-5,1.53,5.2,5.2,0,0,0-1.82,4.05,7.54,7.54,0,0,0,.27,1.76,3.24,3.24,0,0,0,.12.44,2.68,2.68,0,0,0-.39,1.44A2.58,2.58,0,0,0,6,33c.2.2.42.17.64.25a6.85,6.85,0,0,0,.48,1.47,5.38,5.38,0,0,0,.51.79c0,.05.11.09.15.14v1.51a2.05,2.05,0,0,1-1,.88c-.62.32-1.47.63-2.34,1a8.09,8.09,0,0,0-2.57,1.73A5.37,5.37,0,0,0,.5,44.15a1,1,0,0,0,.91,1h42.8a1,1,0,0,0,1-1v-.06a5,5,0,0,0-1.59-3.42A9,9,0,0,0,40.69,39c-1-.4-2-.72-2.67-1.05a2.15,2.15,0,0,1-1.1-.86v-1.5s.12-.09.16-.14a5.36,5.36,0,0,0,.5-.79,6.35,6.35,0,0,0,.49-1.47c.22-.08.43-.05.63-.25a2.58,2.58,0,0,0,.65-1.87A2.68,2.68,0,0,0,39,29.65c0-.17.06-.19.12-.44a7.54,7.54,0,0,0,.27-1.76,5,5,0,0,0-1-3A4.08,4.08,0,0,0,35.74,23l-.38-.64a1,1,0,0,0-.84-.47,7.6,7.6,0,0,0-5,1.53,5.21,5.21,0,0,0-1.83,4.05A8.1,8.1,0,0,0,28,29.21c.06.25.08.27.12.44a2.77,2.77,0,0,0-.39,1.44A2.58,2.58,0,0,0,28.34,33c.2.2.41.17.64.25a6.85,6.85,0,0,0,.48,1.47,5.38,5.38,0,0,0,.51.79c0,.05.11.09.15.14v1.51a2,2,0,0,1-1,.88c-.61.32-1.46.63-2.34,1a7.94,7.94,0,0,0-2.56,1.73,5.37,5.37,0,0,0-1.39,3.38v0a5,5,0,0,0-1.59-3.42A9,9,0,0,0,18.35,39c-1-.4-2-.72-2.67-1.05a2.15,2.15,0,0,1-1.1-.86v-1.5s.12-.09.16-.14a5.36,5.36,0,0,0,.5-.79,6.35,6.35,0,0,0,.49-1.47c.22-.08.43-.05.63-.25A2.58,2.58,0,0,0,17,31.09a2.68,2.68,0,0,0-.39-1.44c.05-.17.06-.19.12-.44A7.54,7.54,0,0,0,17,27.45a5,5,0,0,0-1-3A4.05,4.05,0,0,0,13.4,23L13,22.34A1,1,0,0,0,12.19,21.87ZM2,23.81a1.46,1.46,0,1,0,0,2.91H2a1.45,1.45,0,0,0,1.45-1.45h0A1.45,1.45,0,0,0,2,23.81Zm41.76,0a1.46,1.46,0,1,0,0,2.91h0a1.46,1.46,0,0,0,1.46-1.45h0A1.46,1.46,0,0,0,43.72,23.81Zm-32,.07.26.42a1,1,0,0,0,.83.48,2,2,0,0,1,1.75.8,3.25,3.25,0,0,1,.56,1.87,7.34,7.34,0,0,1-.22,1.31c-.11.47-.22.83-.22.83A1,1,0,0,0,15,30.67a.74.74,0,0,1,.08.42c0,.45-.1.52-.08.5s0,0,0,0a1,1,0,0,0-1,.86,4.27,4.27,0,0,1-.45,1.33,3.87,3.87,0,0,1-.32.51c-.1.11-.21.16,0,.08a1,1,0,0,0-.53.86v2.19a.8.8,0,0,0,.07.34,3.78,3.78,0,0,0,2.14,2c.89.42,1.87.72,2.78,1.09a7.58,7.58,0,0,1,2.29,1.32,3,3,0,0,1,.73,1.09H2.85a4.32,4.32,0,0,1,.46-1.14,6.48,6.48,0,0,1,2-1.29c.78-.36,1.64-.67,2.44-1.09a3.84,3.84,0,0,0,2-2,1,1,0,0,0,.07-.34V35.22a1,1,0,0,0-.53-.86c.16.08.05,0,0-.08a3.87,3.87,0,0,1-.32-.51,4.27,4.27,0,0,1-.45-1.33,1,1,0,0,0-1-.86c-.08,0-.06,0,0,0s-.08-.05-.08-.5.06-.4.08-.42a1,1,0,0,0,.36-1.08s-.11-.36-.23-.83a8.15,8.15,0,0,1-.21-1.31,3.15,3.15,0,0,1,1.12-2.56A5.63,5.63,0,0,1,11.67,23.88Zm22.34,0,.26.42a1,1,0,0,0,.83.48,2,2,0,0,1,1.75.8,3.25,3.25,0,0,1,.56,1.87,8.39,8.39,0,0,1-.22,1.31c-.11.47-.22.83-.22.83a1,1,0,0,0,.36,1.08.74.74,0,0,1,.08.42c0,.45-.1.52-.08.5s0,0,0,0a1,1,0,0,0-1,.86,4.27,4.27,0,0,1-.45,1.33,3,3,0,0,1-.33.51c-.09.11-.2.16,0,.08a1,1,0,0,0-.53.86v2.19a1,1,0,0,0,.06.34,3.83,3.83,0,0,0,2.15,2c.89.42,1.87.72,2.77,1.09a7.64,7.64,0,0,1,2.3,1.32A3,3,0,0,1,43,43.23H25.19a3.74,3.74,0,0,1,.46-1.14,6.48,6.48,0,0,1,2-1.29c.78-.36,1.64-.67,2.44-1.09a3.84,3.84,0,0,0,1.95-2,1,1,0,0,0,.07-.34V35.22a1,1,0,0,0-.53-.86c.16.08.05,0,0-.08a3.87,3.87,0,0,1-.32-.51,4.06,4.06,0,0,1-.46-1.33,1,1,0,0,0-1-.86c-.08,0-.06,0,0,0s-.08-.05-.08-.5.06-.4.08-.42a1,1,0,0,0,.36-1.08s-.11-.36-.23-.83a8.15,8.15,0,0,1-.21-1.31,3.12,3.12,0,0,1,1.12-2.56A5.58,5.58,0,0,1,34,23.88Z"/></g></g></svg>