<svg xmlns="http://www.w3.org/2000/svg" xmlns:xlink="http://www.w3.org/1999/xlink" viewBox="0 0 43 43"><defs><style>.cls-1{fill:none;stroke-miterlimit:10;stroke:url(#New_Gradient_Swatch_1);}</style><linearGradient id="New_Gradient_Swatch_1" y1="21.5" x2="43" y2="21.5" gradientUnits="userSpaceOnUse"><stop offset="0" stop-color="#00d7ff"/><stop offset="0.21" stop-color="#01cefc"/><stop offset="0.55" stop-color="#05b4f2"/><stop offset="0.98" stop-color="#0c8be3"/><stop offset="0.99" stop-color="#0c8ae3"/></linearGradient></defs><title>3. portal_1</title><g id="Слой_2" data-name="Слой 2"><g id="Layer_1" data-name="Layer 1"><path class="cls-1" d="M1.5.5a1,1,0,0,0-1,1v10a1,1,0,0,0,1,1h40a1,1,0,0,0,1-1V1.5a1,1,0,0,0-1-1Zm5,5a1,1,0,1,1-1,1A1,1,0,0,1,6.5,5.5Zm4,0a1,1,0,1,1-1,1A1,1,0,0,1,10.5,5.5Zm4,0a1,1,0,1,1-1,1A1,1,0,0,1,14.5,5.5Zm-14,10v26a1,1,0,0,0,1,1h40a1,1,0,0,0,1-1v-26m-36,0a1,1,0,0,0-1,1v20a1,1,0,0,0,1,1h13a1,1,0,0,0,1-1v-20a1,1,0,0,0-1-1Zm17,0v2h14v-2Zm0,5v2h14v-2Zm0,5v2h14v-2Zm0,5v2h14v-2Zm0,5v2h14v-2Z"/></g></g></svg>