<svg xmlns="http://www.w3.org/2000/svg" xmlns:xlink="http://www.w3.org/1999/xlink" viewBox="0 0 50.18 44.29"><defs><style>.cls-1{fill:url(#New_Gradient_Swatch_2);}</style><linearGradient id="New_Gradient_Swatch_2" x1="41.6" y1="9.61" x2="4.9" y2="46.31" gradientUnits="userSpaceOnUse"><stop offset="0" stop-color="#00dcff"/><stop offset="0.21" stop-color="#01d3fc"/><stop offset="0.55" stop-color="#05b9f5"/><stop offset="0.98" stop-color="#0c90e8"/><stop offset="0.99" stop-color="#0c8fe8"/></linearGradient></defs><title>5. APT Token_1</title><g id="Слой_2" data-name="Слой 2"><g id="Layer_1" data-name="Layer 1"><path class="cls-1" d="M48.45,27.27H48.3L42.07,16.4a1.73,1.73,0,0,0-1.43-2.7,1.73,1.73,0,0,0-1.73,1.73,1.7,1.7,0,0,0,.27.91L32.92,27.28l-.12,0L26.59,16.39a1.75,1.75,0,0,0,.29-1,1.71,1.71,0,0,0-.45-1.16l6.2-10.88a1.77,1.77,0,0,0,.46.07A1.73,1.73,0,1,0,31.52,1H18.92a1.73,1.73,0,0,0-3.3.71,1.69,1.69,0,0,0,.3,1l-6.25,11-.26,0a1.72,1.72,0,0,0-1.73,1.73,1.76,1.76,0,0,0,.4,1.09L2,27.29l-.25,0a1.73,1.73,0,1,0,.39,3.4L8.27,41.4a1.7,1.7,0,0,0-.46,1.16,1.73,1.73,0,1,0,3.1-1l6.17-10.83a1.12,1.12,0,0,0,.27,0A1.74,1.74,0,0,0,19,29.58h12.5l.06.14L25.17,40.85A1.72,1.72,0,1,0,26.94,43H39.11A1.73,1.73,0,1,0,42,41.34l6.09-10.66a1.5,1.5,0,0,0,.37,0,1.73,1.73,0,1,0,0-3.45Zm-22,14,6.09-10.66a1.62,1.62,0,0,0,.58.11h.16l6.16,10.8-.14.21H26.78A1.74,1.74,0,0,0,26.42,41.27ZM19,2.31h12.5a2.39,2.39,0,0,0,.13.28L25.27,13.71h-.21l-6.28-11A1.93,1.93,0,0,0,19,2.31ZM40.64,17.15a2,2,0,0,0,.35,0l6.16,10.75a1.62,1.62,0,0,0-.27.41H34.66a1.76,1.76,0,0,0-.47-.61L40.24,17.1A1.75,1.75,0,0,0,40.64,17.15ZM31.52,28.28H18.92a1.67,1.67,0,0,0-.25-.38l6.14-10.78a2,2,0,0,0,.34,0,2,2,0,0,0,.36,0L31.7,28A1.49,1.49,0,0,0,31.52,28.28Zm-14.17-1H17.2l-6.3-11A2.39,2.39,0,0,0,11,16h12.5a1.79,1.79,0,0,0,.2.39l-6.2,10.88Zm0-23.81a2.2,2.2,0,0,0,.36,0l6.17,10.84a2,2,0,0,0-.3.45H11a1.55,1.55,0,0,0-.2-.32L17,3.42A2,2,0,0,0,17.35,3.46ZM9.22,17.13l.19,0a1.63,1.63,0,0,0,.45-.06l6.19,10.78a1.65,1.65,0,0,0-.28.41H3.3A1.42,1.42,0,0,0,3.09,28ZM9.8,40.86a2.3,2.3,0,0,0-.26,0h-.1L3.18,29.93a2.26,2.26,0,0,0,.17-.35H15.72A2,2,0,0,0,16,30Zm31,0-.25,0L34.4,30.11a1.89,1.89,0,0,0,.31-.53H46.83a1.52,1.52,0,0,0,.18.36l-6.22,10.9Z"/></g></g></svg>