<svg xmlns="http://www.w3.org/2000/svg" xmlns:xlink="http://www.w3.org/1999/xlink" viewBox="0 0 74.62 53.97"><defs><style>.cls-1,.cls-2,.cls-3,.cls-4,.cls-5,.cls-6,.cls-7,.cls-8,.cls-9{fill:none;stroke-miterlimit:10;stroke-width:2px;}.cls-1{stroke:url(#New_Gradient_Swatch_1);}.cls-2{stroke:url(#New_Gradient_Swatch_1-2);}.cls-3{stroke:url(#New_Gradient_Swatch_1-3);}.cls-4{stroke:url(#New_Gradient_Swatch_1-4);}.cls-5{stroke:url(#New_Gradient_Swatch_1-5);}.cls-6{stroke:url(#New_Gradient_Swatch_1-6);}.cls-7{stroke:url(#New_Gradient_Swatch_1-7);}.cls-8{stroke:url(#New_Gradient_Swatch_1-8);}.cls-9{stroke:url(#New_Gradient_Swatch_1-9);}</style><linearGradient id="New_Gradient_Swatch_1" y1="45.62" x2="32.86" y2="45.62" gradientUnits="userSpaceOnUse"><stop offset="0" stop-color="#00d7ff"/><stop offset="0.21" stop-color="#01cefc"/><stop offset="0.55" stop-color="#05b4f2"/><stop offset="0.98" stop-color="#0c8be3"/><stop offset="0.99" stop-color="#0c8ae3"/></linearGradient><linearGradient id="New_Gradient_Swatch_1-2" x1="7.21" y1="26.52" x2="30.39" y2="26.52" xlink:href="#New_Gradient_Swatch_1"/><linearGradient id="New_Gradient_Swatch_1-3" x1="22.74" y1="46.11" x2="38.97" y2="46.11" xlink:href="#New_Gradient_Swatch_1"/><linearGradient id="New_Gradient_Swatch_1-4" x1="31.14" y1="51.93" x2="59.62" y2="51.93" xlink:href="#New_Gradient_Swatch_1"/><linearGradient id="New_Gradient_Swatch_1-5" x1="38.33" y1="39.28" x2="52.41" y2="39.28" xlink:href="#New_Gradient_Swatch_1"/><linearGradient id="New_Gradient_Swatch_1-6" x1="38.33" y1="26.69" x2="68.18" y2="26.69" xlink:href="#New_Gradient_Swatch_1"/><linearGradient id="New_Gradient_Swatch_1-7" x1="51.02" y1="33" x2="74.62" y2="33" xlink:href="#New_Gradient_Swatch_1"/><linearGradient id="New_Gradient_Swatch_1-8" x1="14.97" y1="20.35" x2="53.83" y2="20.35" xlink:href="#New_Gradient_Swatch_1"/><linearGradient id="New_Gradient_Swatch_1-9" x1="37.79" y1="20.49" x2="59.94" y2="20.49" xlink:href="#New_Gradient_Swatch_1"/></defs><title>Icon 3</title><g id="Слой_2" data-name="Слой 2"><g id="Layer_1" data-name="Layer 1"><polygon class="cls-1" points="23.93 39.31 31.14 51.93 1.72 51.93 8.94 39.31 23.93 39.31"/><polyline class="cls-2" points="23.36 39.31 8.94 39.31 23.36 14.06 30.34 13.73"/><polyline class="cls-3" points="38.09 39.31 31.14 51.74 23.6 38.98"/><line class="cls-4" x1="31.14" y1="51.93" x2="59.62" y2="51.93"/><line class="cls-5" x1="52.41" y1="39.31" x2="38.33" y2="39.25"/><polyline class="cls-6" points="58.8 14.06 66.46 14.06 51.94 39.31 38.33 39.25"/><polygon class="cls-7" points="66.46 14.06 73.48 26.69 59.62 51.93 57.95 49.01 52.17 38.9 66.46 14.06"/><polyline class="cls-8" points="38.91 26.69 45.72 39.25 16.64 39.25 37.07 1.44 52.17 1.44 38.91 26.69 23.43 26.69"/><polygon class="cls-9" points="44.83 38.83 58.8 14.06 52.32 2.09 38.91 26.69 44.83 38.83"/></g></g></svg>