<svg xmlns="http://www.w3.org/2000/svg" xmlns:xlink="http://www.w3.org/1999/xlink" viewBox="0 0 47.06 36.72"><defs><style>.cls-1{fill:none;stroke-miterlimit:10;stroke-width:2px;stroke:url(#linear-gradient);}</style><linearGradient id="linear-gradient" y1="18.36" x2="47.06" y2="18.36" gradientUnits="userSpaceOnUse"><stop offset="0.15" stop-color="#662d8c"/><stop offset="0.28" stop-color="#6a2f8d"/><stop offset="0.42" stop-color="#77368f"/><stop offset="0.56" stop-color="#8c4093"/><stop offset="0.7" stop-color="#aa5098"/><stop offset="0.85" stop-color="#d0639f"/><stop offset="1" stop-color="#fe7aa7"/><stop offset="1" stop-color="#ff7ba7"/></linearGradient></defs><title>Icon 31</title><g id="Слой_2" data-name="Слой 2"><g id="Layer_1" data-name="Layer 1"><path class="cls-1" d="M8.44,35.72c-5.72,0-8.41-4-7.12-11.45,2.1-11.57,14.14-20,20.33-22.91l.58,1.52C17,6.51,11.83,11.41,8.8,19.36c1.16-1.05,2.68-1.28,4.55-1.28,4.33,0,6.31,3.38,5.38,8.64A10.65,10.65,0,0,1,8.44,35.72Zm23.61,0c-5.72,0-8.41-4-7.13-11.45C27,12.7,39.06,4.29,45.26,1.36l.58,1.52c-5.26,3.63-10.4,8.53-13.44,16.48,1.17-1.05,2.69-1.28,4.56-1.28,4.32,0,6.31,3.38,5.38,8.64A10.65,10.65,0,0,1,32.05,35.72Z"/></g></g></svg>