<svg xmlns="http://www.w3.org/2000/svg" xmlns:xlink="http://www.w3.org/1999/xlink" viewBox="0 0 68.79 90.64"><defs><style>.cls-1,.cls-10,.cls-2,.cls-3,.cls-4,.cls-5,.cls-6,.cls-7,.cls-8,.cls-9{fill:none;stroke-miterlimit:10;stroke-width:2px;}.cls-1{stroke:url(#linear-gradient);}.cls-2{stroke:url(#linear-gradient-2);}.cls-3{stroke:url(#linear-gradient-3);}.cls-4{stroke:url(#linear-gradient-4);}.cls-5{stroke:url(#linear-gradient-5);}.cls-6{stroke:url(#linear-gradient-6);}.cls-7{stroke:url(#linear-gradient-7);}.cls-8{stroke:url(#linear-gradient-8);}.cls-9{stroke:url(#linear-gradient-9);}.cls-10{stroke:url(#linear-gradient-10);}.cls-11{fill:url(#linear-gradient-11);}</style><linearGradient id="linear-gradient" x1="928.03" y1="-1079.51" x2="991.14" y2="-1079.51" gradientTransform="translate(-938.94 1138.6)" gradientUnits="userSpaceOnUse"><stop offset="0.15" stop-color="#662d8c"/><stop offset="0.28" stop-color="#6a2f8d"/><stop offset="0.42" stop-color="#77368f"/><stop offset="0.56" stop-color="#8c4093"/><stop offset="0.7" stop-color="#aa5098"/><stop offset="0.85" stop-color="#d0639f"/><stop offset="1" stop-color="#fe7aa7"/><stop offset="1" stop-color="#ff7ba7"/></linearGradient><linearGradient id="linear-gradient-2" x1="7.92" y1="53.58" x2="33.37" y2="53.58" gradientTransform="matrix(1, 0, 0, 1, 0, 0)" xlink:href="#linear-gradient"/><linearGradient id="linear-gradient-3" x1="7.92" y1="59.05" x2="33.37" y2="59.05" gradientTransform="matrix(1, 0, 0, 1, 0, 0)" xlink:href="#linear-gradient"/><linearGradient id="linear-gradient-4" x1="7.92" y1="64.52" x2="33.37" y2="64.52" gradientTransform="matrix(1, 0, 0, 1, 0, 0)" xlink:href="#linear-gradient"/><linearGradient id="linear-gradient-5" x1="7.92" y1="37.19" x2="33.37" y2="37.19" gradientTransform="matrix(1, 0, 0, 1, 0, 0)" xlink:href="#linear-gradient"/><linearGradient id="linear-gradient-6" x1="7.92" y1="42.65" x2="33.37" y2="42.65" gradientTransform="matrix(1, 0, 0, 1, 0, 0)" xlink:href="#linear-gradient"/><linearGradient id="linear-gradient-7" x1="7.92" y1="48.12" x2="33.37" y2="48.12" gradientTransform="matrix(1, 0, 0, 1, 0, 0)" xlink:href="#linear-gradient"/><linearGradient id="linear-gradient-8" x1="7.92" y1="69.98" x2="33.37" y2="69.98" gradientTransform="matrix(1, 0, 0, 1, 0, 0)" xlink:href="#linear-gradient"/><linearGradient id="linear-gradient-9" x1="7.92" y1="75.45" x2="33.37" y2="75.45" gradientTransform="matrix(1, 0, 0, 1, 0, 0)" xlink:href="#linear-gradient"/><linearGradient id="linear-gradient-10" x1="7.92" y1="80.91" x2="33.37" y2="80.91" gradientTransform="matrix(1, 0, 0, 1, 0, 0)" xlink:href="#linear-gradient"/><linearGradient id="linear-gradient-11" x1="12.15" y1="28.3" x2="68.79" y2="28.3" gradientTransform="matrix(1, 0, 0, 1, 0, 0)" xlink:href="#linear-gradient"/></defs><title>Icon 23</title><g id="Слой_2" data-name="Слой 2"><g id="Layer_1" data-name="Layer 1"><rect class="cls-1" x="-9.91" y="39.44" width="61.11" height="39.29" transform="translate(79.73 38.44) rotate(90)"/><line class="cls-2" x1="7.92" y1="53.58" x2="33.37" y2="53.58"/><line class="cls-3" x1="7.92" y1="59.05" x2="33.37" y2="59.05"/><line class="cls-4" x1="7.92" y1="64.52" x2="33.37" y2="64.52"/><line class="cls-5" x1="7.92" y1="37.19" x2="33.37" y2="37.19"/><line class="cls-6" x1="7.92" y1="42.65" x2="33.37" y2="42.65"/><line class="cls-7" x1="7.92" y1="48.12" x2="33.37" y2="48.12"/><line class="cls-8" x1="7.92" y1="69.98" x2="33.37" y2="69.98"/><line class="cls-9" x1="7.92" y1="75.45" x2="33.37" y2="75.45"/><line class="cls-10" x1="7.92" y1="80.91" x2="33.37" y2="80.91"/><path class="cls-11" d="M40.29,0A28.55,28.55,0,0,0,12.15,24H15c2-3,5.87-5.61,10.92-7.31A47,47,0,0,0,24.69,24h1.75a44,44,0,0,1,1.4-7.9,46.77,46.77,0,0,1,11.57-1.61V24h1.75V14.44a46.78,46.78,0,0,1,11.58,1.61,47.26,47.26,0,0,1,1.61,11.58H45.06v1.74h9.29A47.26,47.26,0,0,1,52.74,41a44.62,44.62,0,0,1-7.68,1.37v1.75a46.67,46.67,0,0,0,7.08-1.19c-1.66,4.93-4.14,8.75-7.08,10.77v2.94A28.5,28.5,0,0,0,40.29,0ZM26.46,14.68c-5.31,1.64-9.58,4.2-12.12,7.29A26.83,26.83,0,0,1,33.75,2.56C30.66,5.09,28.11,9.36,26.46,14.68Zm12.95-2a48,48,0,0,0-11,1.42c2.35-7,6.37-11.78,11-12.32Zm1.75,0V1.8c4.61.54,8.63,5.33,11,12.32A48,48,0,0,0,41.16,12.7Zm13,2c-1.64-5.32-4.2-9.59-7.29-12.12A26.83,26.83,0,0,1,66.23,22C63.7,18.88,59.43,16.32,54.11,14.68ZM67,27.63H56.09a47.56,47.56,0,0,0-1.43-11C61.66,19,66.44,23,67,27.63ZM46.82,54.44c3.09-2.53,5.65-6.8,7.29-12.11,5.32-1.65,9.59-4.21,12.12-7.3A26.83,26.83,0,0,1,46.82,54.44Zm7.84-14.08a47.56,47.56,0,0,0,1.43-11H67C66.44,34,61.66,38,54.66,40.36Z"/></g></g></svg>