<svg xmlns="http://www.w3.org/2000/svg" xmlns:xlink="http://www.w3.org/1999/xlink" viewBox="0 0 76.71 62.65"><defs><style>.cls-1{fill:url(#linear-gradient);}.cls-2{fill:url(#linear-gradient-2);}.cls-3{fill:url(#linear-gradient-3);}</style><linearGradient id="linear-gradient" y1="31.32" x2="76.71" y2="31.32" gradientUnits="userSpaceOnUse"><stop offset="0.15" stop-color="#662d8c"/><stop offset="0.28" stop-color="#6a2f8d"/><stop offset="0.42" stop-color="#77368f"/><stop offset="0.56" stop-color="#8c4093"/><stop offset="0.7" stop-color="#aa5098"/><stop offset="0.85" stop-color="#d0639f"/><stop offset="1" stop-color="#fe7aa7"/><stop offset="1" stop-color="#ff7ba7"/></linearGradient><linearGradient id="linear-gradient-2" x1="32.22" y1="41.33" x2="55.99" y2="41.33" xlink:href="#linear-gradient"/><linearGradient id="linear-gradient-3" x1="5.44" y1="32.49" x2="23.69" y2="32.49" xlink:href="#linear-gradient"/></defs><title>Icon 15</title><g id="Слой_2" data-name="Слой 2"><g id="Layer_1" data-name="Layer 1"><path class="cls-1" d="M45.11,20V2H71V0H5.54V2h8v8.2H0V54.4H29.13V10.2H15.57V2H43.11V20H33.66v2H74.71V60.65H13.5V57.42h-2v5.23H76.71V20Zm-18,32.39H2V12.2H27.13Z"/><path class="cls-2" d="M56,41.33A11.89,11.89,0,1,0,44.11,53.21,11.89,11.89,0,0,0,56,41.33Zm-21.77,0a9.89,9.89,0,1,1,9.89,9.88A9.9,9.9,0,0,1,34.22,41.33Z"/><path class="cls-3" d="M23.69,16.32H5.44V48.67H23.69Zm-2,30.35H7.44V18.32H21.69Z"/></g></g></svg>