<svg xmlns="http://www.w3.org/2000/svg" xmlns:xlink="http://www.w3.org/1999/xlink" viewBox="0 0 82.37 59.63"><defs><style>.cls-1,.cls-2,.cls-3{fill:none;stroke-miterlimit:10;stroke-width:2px;}.cls-1{stroke:url(#linear-gradient);}.cls-2{stroke:url(#linear-gradient-2);}.cls-3{stroke:url(#linear-gradient-3);}</style><linearGradient id="linear-gradient" x1="18.04" y1="29.81" x2="63.97" y2="29.81" gradientUnits="userSpaceOnUse"><stop offset="0.15" stop-color="#662d8c"/><stop offset="0.28" stop-color="#6a2f8d"/><stop offset="0.42" stop-color="#77368f"/><stop offset="0.56" stop-color="#8c4093"/><stop offset="0.7" stop-color="#aa5098"/><stop offset="0.85" stop-color="#d0639f"/><stop offset="1" stop-color="#fe7aa7"/><stop offset="1" stop-color="#ff7ba7"/></linearGradient><linearGradient id="linear-gradient-2" x1="55.23" y1="27.4" x2="82.37" y2="27.4" xlink:href="#linear-gradient"/><linearGradient id="linear-gradient-3" x1="497.13" y1="27.4" x2="524.27" y2="27.4" gradientTransform="matrix(-1, 0, 0, 1, 524.27, 0)" xlink:href="#linear-gradient"/></defs><title>Icon 24</title><g id="Слой_2" data-name="Слой 2"><g id="Layer_1" data-name="Layer 1"><path class="cls-1" d="M50.62,43.63c3.51-4.39,5.75-11.12,5.75-18.68C56.37,11.73,49.49,1,41,1S25.64,11.73,25.64,25c0,7.56,2.24,14.29,5.75,18.68-7.28,2.72-12.3,8.41-12.34,15H63C62.92,52,57.9,46.35,50.62,43.63Z"/><path class="cls-2" d="M65.74,51.56H81.37C81.33,46,77.12,41.26,71,39c2.94-3.68,4.83-9.33,4.83-15.66C75.85,12.24,70.08,3.24,63,3.24a9.88,9.88,0,0,0-7,3.25"/><path class="cls-3" d="M16.63,51.56H1C1,46,5.25,41.26,11.35,39c-2.94-3.68-4.82-9.33-4.82-15.66,0-11.09,5.77-20.09,12.88-20.09a9.87,9.87,0,0,1,7,3.25"/></g></g></svg>