<svg xmlns="http://www.w3.org/2000/svg" xmlns:xlink="http://www.w3.org/1999/xlink" viewBox="0 0 75 78.85"><defs><style>.cls-1,.cls-2{fill:none;stroke-miterlimit:10;stroke-width:2px;}.cls-1{stroke:url(#linear-gradient);}.cls-2{stroke:url(#linear-gradient-2);}.cls-3{fill:url(#linear-gradient-3);}.cls-4{fill:url(#linear-gradient-4);}</style><linearGradient id="linear-gradient" x1="46.38" y1="16.14" x2="70.27" y2="16.14" gradientUnits="userSpaceOnUse"><stop offset="0.15" stop-color="#662d8c"/><stop offset="0.28" stop-color="#6a2f8d"/><stop offset="0.42" stop-color="#77368f"/><stop offset="0.56" stop-color="#8c4093"/><stop offset="0.7" stop-color="#aa5098"/><stop offset="0.85" stop-color="#d0639f"/><stop offset="1" stop-color="#fe7aa7"/><stop offset="1" stop-color="#ff7ba7"/></linearGradient><linearGradient id="linear-gradient-2" x1="40.98" y1="17.01" x2="75" y2="17.01" xlink:href="#linear-gradient"/><linearGradient id="linear-gradient-3" x1="0" y1="66.49" x2="64.33" y2="66.49" xlink:href="#linear-gradient"/><linearGradient id="linear-gradient-4" x1="4.35" y1="29.24" x2="59.99" y2="29.24" xlink:href="#linear-gradient"/></defs><title>Icon 22</title><g id="Слой_2" data-name="Слой 2"><g id="Layer_1" data-name="Layer 1"><polygon class="cls-1" points="58.32 7.04 61.35 13.18 68.12 14.16 63.22 18.93 64.38 25.68 58.32 22.49 52.27 25.68 53.42 18.93 48.52 14.16 55.29 13.18 58.32 7.04"/><circle class="cls-2" cx="57.99" cy="17.01" r="16.01"/><polygon class="cls-3" points="64.33 54.13 0 54.13 0 56.13 23.57 56.13 21.98 78.71 23.98 78.85 25.57 56.13 38.77 56.13 40.36 78.85 42.36 78.71 40.77 56.13 64.33 56.13 64.33 54.13"/><path class="cls-4" d="M58,36.48v13H6.35V17H38.53c0-.68,0-1.34.1-2h-.75l-.56-8-2,.14L35.87,15H28.46L29,7.13,27,7l-.56,8H4.35V51.5H60V36.37A19,19,0,0,1,58,36.48Z"/></g></g></svg>