<svg xmlns="http://www.w3.org/2000/svg" xmlns:xlink="http://www.w3.org/1999/xlink" viewBox="0 0 65.29 65.29"><defs><style>.cls-1{fill:url(#linear-gradient);}</style><linearGradient id="linear-gradient" y1="32.65" x2="65.29" y2="32.65" gradientUnits="userSpaceOnUse"><stop offset="0.15" stop-color="#662d8c"/><stop offset="0.28" stop-color="#6a2f8d"/><stop offset="0.42" stop-color="#77368f"/><stop offset="0.56" stop-color="#8c4093"/><stop offset="0.7" stop-color="#aa5098"/><stop offset="0.85" stop-color="#d0639f"/><stop offset="1" stop-color="#fe7aa7"/><stop offset="1" stop-color="#ff7ba7"/></linearGradient></defs><title>Icon 17</title><g id="Слой_2" data-name="Слой 2"><g id="Layer_1" data-name="Layer 1"><path class="cls-1" d="M32.65,0A32.65,32.65,0,1,0,65.29,32.64,32.68,32.68,0,0,0,32.65,0Zm18.1,31.64a54.81,54.81,0,0,0-1.64-12.58c8,2.7,13.5,7.3,14.12,12.58Zm-2,0H33.65V16.54A53,53,0,0,1,46.9,18.39,53,53,0,0,1,48.75,31.64Zm-15.1-17.1V2.06c5.28.62,9.88,6.1,12.58,14.12A54.81,54.81,0,0,0,33.65,14.54Zm-2,0a54.83,54.83,0,0,0-12.59,1.64c2.7-8,7.3-13.5,12.59-14.12Zm0,2v15.1H16.54a53,53,0,0,1,1.85-13.25A53,53,0,0,1,31.65,16.54ZM14.54,31.64H2.06c.62-5.28,6.1-9.88,14.12-12.58A54.81,54.81,0,0,0,14.54,31.64Zm0,2a54.83,54.83,0,0,0,1.64,12.59c-8-2.7-13.5-7.3-14.12-12.59Zm2,0H31.65V48.75A53,53,0,0,1,18.39,46.9,53,53,0,0,1,16.54,33.64ZM31.65,50.75V63.23c-5.29-.62-9.89-6.1-12.59-14.12A54.83,54.83,0,0,0,31.65,50.75Zm2,0a54.81,54.81,0,0,0,12.58-1.64c-2.7,8-7.3,13.5-12.58,14.12Zm0-2V33.64h15.1A53,53,0,0,1,46.9,46.9,53,53,0,0,1,33.65,48.75Zm17.1-15.11H63.23c-.62,5.29-6.1,9.89-14.12,12.59A54.83,54.83,0,0,0,50.75,33.64Zm11.61-8.48c-2.9-3.54-7.79-6.47-13.88-8.35-1.88-6.09-4.81-11-8.35-13.88A30.74,30.74,0,0,1,62.36,25.16ZM25.16,2.93c-3.54,2.9-6.47,7.79-8.35,13.88-6.09,1.88-11,4.81-13.88,8.35A30.74,30.74,0,0,1,25.16,2.93ZM2.93,40.13c2.9,3.54,7.79,6.47,13.88,8.35,1.88,6.09,4.81,11,8.35,13.88A30.74,30.74,0,0,1,2.93,40.13Zm37.2,22.23c3.54-2.9,6.47-7.79,8.35-13.88,6.09-1.88,11-4.81,13.88-8.35A30.74,30.74,0,0,1,40.13,62.36Z"/></g></g></svg>