<svg xmlns="http://www.w3.org/2000/svg" xmlns:xlink="http://www.w3.org/1999/xlink" viewBox="0 0 51.58 74.27"><defs><style>.cls-1,.cls-2,.cls-3,.cls-4,.cls-5,.cls-6,.cls-7{fill:none;stroke-miterlimit:10;stroke-width:2px;}.cls-1{stroke:url(#linear-gradient);}.cls-2{stroke:url(#linear-gradient-2);}.cls-3{stroke:url(#linear-gradient-3);}.cls-4{stroke:url(#linear-gradient-4);}.cls-5{stroke:url(#linear-gradient-5);}.cls-6{stroke:url(#linear-gradient-6);}.cls-7{stroke:url(#linear-gradient-7);}</style><linearGradient id="linear-gradient" x1="16.08" y1="59.21" x2="35.53" y2="59.21" gradientUnits="userSpaceOnUse"><stop offset="0.15" stop-color="#662d8c"/><stop offset="0.28" stop-color="#6a2f8d"/><stop offset="0.42" stop-color="#77368f"/><stop offset="0.56" stop-color="#8c4093"/><stop offset="0.7" stop-color="#aa5098"/><stop offset="0.85" stop-color="#d0639f"/><stop offset="1" stop-color="#fe7aa7"/><stop offset="1" stop-color="#ff7ba7"/></linearGradient><linearGradient id="linear-gradient-2" x1="0" y1="22.68" x2="51.58" y2="22.68" xlink:href="#linear-gradient"/><linearGradient id="linear-gradient-3" x1="16.03" y1="64.22" x2="35.49" y2="64.22" xlink:href="#linear-gradient"/><linearGradient id="linear-gradient-4" x1="16.03" y1="68.94" x2="35.49" y2="68.94" xlink:href="#linear-gradient"/><linearGradient id="linear-gradient-5" x1="21.17" y1="73.27" x2="30.45" y2="73.27" xlink:href="#linear-gradient"/><linearGradient id="linear-gradient-6" x1="8.74" y1="51.23" x2="18.02" y2="51.23" xlink:href="#linear-gradient"/><linearGradient id="linear-gradient-7" x1="33.59" y1="51.23" x2="42.87" y2="51.23" xlink:href="#linear-gradient"/></defs><title>Icon 19</title><g id="Слой_2" data-name="Слой 2"><g id="Layer_1" data-name="Layer 1"><line class="cls-1" x1="16.08" y1="59.21" x2="35.53" y2="59.21"/><path class="cls-2" d="M9.56,44.53a24.79,24.79,0,1,1,32.38.07"/><line class="cls-3" x1="16.03" y1="64.22" x2="35.49" y2="64.22"/><line class="cls-4" x1="16.03" y1="68.94" x2="35.49" y2="68.94"/><line class="cls-5" x1="21.17" y1="73.27" x2="30.45" y2="73.27"/><path class="cls-6" d="M17,58.66s.8-6.13-7.56-14.27"/><path class="cls-7" d="M34.61,58.66s-.8-6.13,7.56-14.27"/></g></g></svg>