<svg xmlns="http://www.w3.org/2000/svg" xmlns:xlink="http://www.w3.org/1999/xlink" viewBox="0 0 60.54 78.97"><defs><style>.cls-1,.cls-2,.cls-3,.cls-4{fill:none;stroke-miterlimit:10;stroke-width:2px;}.cls-1{stroke:url(#linear-gradient);}.cls-2{stroke:url(#linear-gradient-2);}.cls-3{stroke:url(#linear-gradient-3);}.cls-4{stroke:url(#linear-gradient-4);}</style><linearGradient id="linear-gradient" y1="27.18" x2="44.34" y2="27.18" gradientUnits="userSpaceOnUse"><stop offset="0.15" stop-color="#662d8c"/><stop offset="0.28" stop-color="#6a2f8d"/><stop offset="0.42" stop-color="#77368f"/><stop offset="0.56" stop-color="#8c4093"/><stop offset="0.7" stop-color="#aa5098"/><stop offset="0.85" stop-color="#d0639f"/><stop offset="1" stop-color="#fe7aa7"/><stop offset="1" stop-color="#ff7ba7"/></linearGradient><linearGradient id="linear-gradient-2" x1="5.88" y1="27.91" x2="38.46" y2="27.91" xlink:href="#linear-gradient"/><linearGradient id="linear-gradient-3" x1="26.93" y1="47.36" x2="52.37" y2="47.36" xlink:href="#linear-gradient"/><linearGradient id="linear-gradient-4" x1="22.08" y1="54.38" x2="60.54" y2="54.38" xlink:href="#linear-gradient"/></defs><title>Icon 10</title><g id="Слой_2" data-name="Слой 2"><g id="Layer_1" data-name="Layer 1"><path class="cls-1" d="M24.2,53.36H8.09A7.08,7.08,0,0,1,1,46.28V8.09A7.08,7.08,0,0,1,8.09,1H36.26a7.08,7.08,0,0,1,7.08,7.09V31.45"/><polyline class="cls-2" points="23.07 47.36 6.88 47.36 6.88 8.47 37.46 8.47 37.46 30.93"/><circle class="cls-3" cx="39.65" cy="47.36" r="11.72"/><path class="cls-4" d="M59.21,75.07,50.54,59.85a16.52,16.52,0,1,0-4,2.57L55.4,77.56Z"/></g></g></svg>