<svg xmlns="http://www.w3.org/2000/svg" xmlns:xlink="http://www.w3.org/1999/xlink" viewBox="0 0 52.33 65.96"><defs><style>.cls-1{fill:url(#linear-gradient);}</style><linearGradient id="linear-gradient" y1="32.98" x2="52.33" y2="32.98" gradientUnits="userSpaceOnUse"><stop offset="0.15" stop-color="#662d8c"/><stop offset="0.28" stop-color="#6a2f8d"/><stop offset="0.42" stop-color="#77368f"/><stop offset="0.56" stop-color="#8c4093"/><stop offset="0.7" stop-color="#aa5098"/><stop offset="0.85" stop-color="#d0639f"/><stop offset="1" stop-color="#fe7aa7"/><stop offset="1" stop-color="#ff7ba7"/></linearGradient></defs><title>Icon 12</title><g id="Слой_2" data-name="Слой 2"><g id="Layer_1" data-name="Layer 1"><path class="cls-1" d="M26.17,0C9.17,0,0,4.87,0,9.45V56.52C0,61.09,9.17,66,26.17,66s26.16-4.87,26.16-9.44V9.45C52.33,4.87,43.16,0,26.17,0Zm0,1.86c14.32,0,24.31,4,24.31,7.59S40.49,17,26.17,17,1.86,13,1.86,9.45,11.84,1.86,26.17,1.86Zm0,62.24c-14.33,0-24.31-4-24.31-7.58V50.66c3.47,3.23,11.75,5.89,24.31,5.89S47,53.89,50.48,50.66v5.86C50.48,60.1,40.49,64.1,26.17,64.1Zm0-9.41c-14.33,0-24.31-4-24.31-7.59V41.24c3.47,3.24,11.75,5.89,24.31,5.89S47,44.48,50.48,41.24V47.1C50.48,50.69,40.49,54.69,26.17,54.69Zm0-9.42c-14.33,0-24.31-4-24.31-7.58V31.83c3.47,3.23,11.75,5.89,24.31,5.89S47,35.06,50.48,31.83v5.86C50.48,41.28,40.49,45.27,26.17,45.27Zm0-9.41c-14.33,0-24.31-4-24.31-7.59V22.41c3.47,3.24,11.75,5.89,24.31,5.89S47,25.65,50.48,22.41v5.86C50.48,31.86,40.49,35.86,26.17,35.86Zm0-9.41c-14.33,0-24.31-4-24.31-7.59V13c3.47,3.23,11.75,5.89,24.31,5.89S47,16.23,50.48,13v5.86C50.48,22.45,40.49,26.45,26.17,26.45Z"/></g></g></svg>