<?xml version="1.0" encoding="UTF-8"?>
<svg width="31px" height="31px" viewBox="0 0 31 31" version="1.1" xmlns="http://www.w3.org/2000/svg" xmlns:xlink="http://www.w3.org/1999/xlink">
    <!-- Generator: Sketch 50.2 (55047) - http://www.bohemiancoding.com/sketch -->
    <title>steemit-1</title>
    <desc>Created with Sketch.</desc>
    <defs></defs>
    <g id="Page-1" stroke="none" stroke-width="1" fill="none" fill-rule="evenodd">
        <g id="Art-pro-Updated" transform="translate(-741.000000, -16551.000000)" fill="#FFFFFF" fill-rule="nonzero">
            <g id="Group-4" transform="translate(360.000000, 16548.000000)">
                <g id="steemit-1" transform="translate(381.000000, 3.000000)">
                    <g id="ZYRsfK.tif">
                        <path d="M26.66,3.038 C25.854,3.534 25.172,3.844 24.552,4.34 C23.932,4.836 23.436,5.456 23.002,6.014 C22.63,6.51 22.754,6.696 23.312,7.006 C24.986,7.812 26.536,8.866 27.714,10.354 C29.326,12.338 30.256,14.57 30.442,17.112 C30.628,19.53 30.132,21.824 28.892,23.932 C27.466,26.474 25.42,28.272 22.754,29.512 C20.088,30.752 17.236,30.876 14.384,30.628 C11.966,30.442 9.672,29.946 7.44,29.078 C6.014,28.52 4.588,27.838 3.162,27.156 C3.038,27.094 2.914,26.97 2.666,26.784 C2.914,26.66 3.1,26.536 3.286,26.474 C4.464,26.04 5.456,25.42 6.324,24.49 C6.386,24.428 6.448,24.366 6.448,24.366 C7.192,23.312 7.192,23.188 6.262,22.63 C4.402,21.514 2.976,20.026 1.984,18.104 C0.62,15.5 0.248,12.71 0.992,9.796 C1.922,6.386 4.03,3.906 7.006,2.046 C8.618,1.054 10.416,0.682 12.276,0.434 C14.632,0.124 16.988,0.31 19.344,0.682 C21.39,1.054 23.374,1.55 25.296,2.418 C25.668,2.604 26.04,2.728 26.35,2.852 C26.474,2.914 26.536,2.976 26.66,3.038 Z M16.244,27.714 C17.608,27.776 18.91,27.59 20.212,27.156 C23.25,26.164 25.606,24.366 26.784,21.204 C28.148,17.422 26.846,12.896 23.25,10.602 C19.53,8.246 14.942,8.866 11.904,11.904 C9.424,14.322 8.618,18.104 10.168,21.514 C10.602,22.506 10.54,23.436 10.044,24.304 C9.734,24.8 9.362,25.234 9.052,25.668 C8.68,26.102 8.68,26.164 9.238,26.412 C11.408,27.342 13.764,27.776 16.244,27.714 Z" id="Shape"></path>
                    </g>
                </g>
            </g>
        </g>
    </g>
</svg>