<svg xmlns="http://www.w3.org/2000/svg" xmlns:xlink="http://www.w3.org/1999/xlink" viewBox="0 0 61 58.39"><defs><style>.cls-1{fill:none;stroke-miterlimit:10;stroke:url(#linear-gradient);}</style><linearGradient id="linear-gradient" y1="29.2" x2="61" y2="29.2" gradientUnits="userSpaceOnUse"><stop offset="0.15" stop-color="#662d8c"/><stop offset="0.28" stop-color="#6a2f8d"/><stop offset="0.42" stop-color="#77368f"/><stop offset="0.56" stop-color="#8c4093"/><stop offset="0.7" stop-color="#aa5098"/><stop offset="0.85" stop-color="#d0639f"/><stop offset="1" stop-color="#fe7aa7"/><stop offset="1" stop-color="#ff7ba7"/></linearGradient></defs><title>Bank icon</title><g id="Слой_2" data-name="Слой 2"><g id="Layer_1" data-name="Layer 1"><path class="cls-1" d="M30.55.5a1.37,1.37,0,0,0-.6.12L1.25,14.06A1.29,1.29,0,0,0,.5,15.24v3.52a1.31,1.31,0,0,0,1.3,1.31H5.72v30H4.15A3.8,3.8,0,0,0,.5,54v3.91h60V54a3.8,3.8,0,0,0-3.65-3.91H55.28v-30H59.2a1.31,1.31,0,0,0,1.3-1.31V15.24a1.29,1.29,0,0,0-.75-1.18L31.05.62A1.46,1.46,0,0,0,30.55.5ZM30.5,3.24,57.89,16.07v1.39H46.15a1.31,1.31,0,1,0,0,2.61h1.34v30H13.54v-30h1.31a1.31,1.31,0,1,0,0-2.61H3.11V16.07Zm-1.3,9v4a7.28,7.28,0,0,0-5.46,3.14,7.06,7.06,0,0,0-1.07,3.27v0a6.11,6.11,0,0,0,2.6,5.11,16.68,16.68,0,0,0,4.86,2,15.2,15.2,0,0,1,4.1,1.66,3.08,3.08,0,0,1,1.49,3A3.27,3.27,0,0,1,35,36.65a4.13,4.13,0,0,1-1.71,1.16,8.37,8.37,0,0,1-2.76.52h0c-2.9,0-3.94-1.22-4.58-2.53a6.78,6.78,0,0,1-.64-2.66l-2.61-.06a9.24,9.24,0,0,0,.9,3.86,7.19,7.19,0,0,0,5.63,3.9v4h2.6v-4a9.84,9.84,0,0,0,2.43-.6A6.7,6.7,0,0,0,37,38.32a6.36,6.36,0,0,0-1.28-9,16.68,16.68,0,0,0-4.86-2,15.2,15.2,0,0,1-4.1-1.66,3.06,3.06,0,0,1-1.48-2.94,4.17,4.17,0,0,1,.65-1.93c.63-1,1.72-2,4.56-2S34.32,20,35,21.31A7.28,7.28,0,0,1,35.72,24L38.33,24a9.79,9.79,0,0,0-1-3.83,7.28,7.28,0,0,0-5.52-3.87v-4ZM8.33,20.07h2.6v30H8.33Zm41.74,0h2.6v30h-2.6ZM4.15,52.67h52.7a1.19,1.19,0,0,1,1,1.31v1.3H3.11V54A1.19,1.19,0,0,1,4.15,52.67Z"/></g></g></svg>