<svg xmlns="http://www.w3.org/2000/svg" xmlns:xlink="http://www.w3.org/1999/xlink" viewBox="0 0 61 61"><defs><style>.cls-1{fill:none;stroke-miterlimit:10;stroke:url(#linear-gradient);}</style><linearGradient id="linear-gradient" y1="30.5" x2="61" y2="30.5" gradientUnits="userSpaceOnUse"><stop offset="0.15" stop-color="#662d8c"/><stop offset="0.28" stop-color="#6a2f8d"/><stop offset="0.42" stop-color="#77368f"/><stop offset="0.56" stop-color="#8c4093"/><stop offset="0.7" stop-color="#aa5098"/><stop offset="0.85" stop-color="#d0639f"/><stop offset="1" stop-color="#fe7aa7"/><stop offset="1" stop-color="#ff7ba7"/></linearGradient></defs><title>Register icon</title><g id="Слой_2" data-name="Слой 2"><g id="Layer_1" data-name="Layer 1"><path class="cls-1" d="M1.93.5A1.43,1.43,0,0,0,.5,1.93V59.07A1.43,1.43,0,0,0,1.93,60.5H59.07a1.43,1.43,0,0,0,1.43-1.43V1.93A1.43,1.43,0,0,0,59.07.5ZM3.36,3.36H57.64V57.64H3.36Zm20,7.14V21.93H51.93V10.5Zm2.85,2.86H49.07v5.71H26.21ZM9.07,14.79v2.85H20.5V14.79ZM23.36,27.64V39.07H51.93V27.64Zm2.85,2.86H49.07v5.71H26.21ZM9.07,31.93v2.86H20.5V31.93ZM23.36,44.79v8.57h8.57V44.79Zm2.85,2.85h2.86V50.5H26.21Zm8.58,0V50.5H51.93V47.64Z"/></g></g></svg>