<?xml version="1.0" encoding="UTF-8"?>
<svg width="32px" height="32px" viewBox="0 0 32 32" version="1.1" xmlns="http://www.w3.org/2000/svg" xmlns:xlink="http://www.w3.org/1999/xlink">
    <!-- Generator: Sketch 50.2 (55047) - http://www.bohemiancoding.com/sketch -->
    <title>icons8-linkedin copy 2</title>
    <desc>Created with Sketch.</desc>
    <defs></defs>
    <g id="Page-1" stroke="none" stroke-width="1" fill="none" fill-rule="evenodd">
        <g id="Art-pro-Updated" transform="translate(-949.000000, -10965.000000)" fill-rule="nonzero">
            <g id="Group-24" transform="translate(921.000000, 10718.000000)">
                <g id="icons8-linkedin-copy-2" transform="translate(28.000000, 247.000000)">
                    <path d="M32,27.5555556 C32,30.0106667 30.0106667,32 27.5555556,32 L4.44444444,32 C1.99022222,32 0,30.0106667 0,27.5555556 L0,4.44444444 C0,1.98933333 1.99022222,0 4.44444444,0 L27.5555556,0 C30.0106667,0 32,1.98933333 32,4.44444444 L32,27.5555556 Z" id="Shape" fill="#0288D1"></path>
                    <g id="Group" transform="translate(5.333333, 5.333333)" fill="#FFFFFF">
                        <rect id="Rectangle-path" x="0" y="6.22222222" width="4.44444444" height="15.1111111"></rect>
                        <path d="M2.20888889,4.44444444 L2.184,4.44444444 C0.857777778,4.44444444 0,3.456 0,2.22133333 C0,0.96 0.884444444,0 2.23466667,0 C3.58666667,0 4.41955556,0.96 4.44444444,2.22133333 C4.44444444,3.45511111 3.58666667,4.44444444 2.20888889,4.44444444 Z" id="Shape"></path>
                        <path d="M21.3333333,21.3333333 L16.8888889,21.3333333 L16.8888889,13.2453333 C16.8888889,11.2915556 15.8,9.95822222 14.0515556,9.95822222 C12.7173333,9.95822222 11.9955556,10.8577778 11.6453333,11.7271111 C11.5173333,12.0382222 11.5555556,12.8986667 11.5555556,13.3333333 L11.5555556,21.3333333 L7.11111111,21.3333333 L7.11111111,6.22222222 L11.5555556,6.22222222 L11.5555556,8.54755556 C12.1964444,7.55555556 13.2,6.22222222 15.7671111,6.22222222 C18.9475556,6.22222222 21.3324444,8.22222222 21.3324444,12.688 L21.3333333,21.3333333 Z" id="Shape"></path>
                    </g>
                </g>
            </g>
        </g>
    </g>
</svg>