<svg xmlns="http://www.w3.org/2000/svg" xmlns:xlink="http://www.w3.org/1999/xlink" viewBox="0 0 63.11 55.7"><defs><style>.cls-1{fill:url(#New_Gradient_Swatch_2);}</style><linearGradient id="New_Gradient_Swatch_2" x1="52.31" y1="12.08" x2="6.16" y2="58.23" gradientUnits="userSpaceOnUse"><stop offset="0" stop-color="#00dcff"/><stop offset="0.21" stop-color="#01d3fc"/><stop offset="0.55" stop-color="#05b9f5"/><stop offset="0.98" stop-color="#0c90e8"/><stop offset="0.99" stop-color="#0c8fe8"/></linearGradient></defs><title>Icon 25</title><g id="Слой_2" data-name="Слой 2"><g id="Layer_1" data-name="Layer 1"><path class="cls-1" d="M60.93,34.29l-.18,0L52.9,20.63a2.17,2.17,0,1,0-4-1.23,2.27,2.27,0,0,0,.33,1.15L41.41,34.31l-.16,0L33.43,20.61a2.1,2.1,0,0,0,.38-1.21A2.14,2.14,0,0,0,33.24,18L41,4.26a2.12,2.12,0,0,0,.57.09,2.18,2.18,0,1,0-2-3.07H23.79A2.17,2.17,0,1,0,20,3.4L12.16,17.26a1.76,1.76,0,0,0-.33,0A2.17,2.17,0,0,0,9.66,19.4a2.11,2.11,0,0,0,.51,1.38L2.49,34.32c-.11,0-.21,0-.32,0a2.18,2.18,0,0,0,0,4.35,2.53,2.53,0,0,0,.49-.06L10.4,52.06A2.17,2.17,0,0,0,12,55.7a2.18,2.18,0,0,0,2.18-2.17,2.12,2.12,0,0,0-.45-1.31L21.47,38.6a2.09,2.09,0,0,0,.34,0,2.17,2.17,0,0,0,2-1.44H39.58a1.34,1.34,0,0,0,.07.18l-8,14a2.17,2.17,0,1,0,2.23,2.73H49.19a2.17,2.17,0,0,0,4.26-.57A2.19,2.19,0,0,0,52.81,52l7.65-13.41a1.84,1.84,0,0,0,.47.06,2.18,2.18,0,1,0,0-4.35ZM33.22,51.9l7.66-13.4a2.25,2.25,0,0,0,.73.14l.21,0L49.56,52.2c-.07.09-.12.18-.18.27H33.68A2.1,2.1,0,0,0,33.22,51.9Zm-9.37-49H39.58a2.72,2.72,0,0,0,.16.35l-8,14h-.26L23.62,3.38A2,2,0,0,0,23.85,2.91ZM51.11,21.57a2.18,2.18,0,0,0,.44,0L59.3,35a2,2,0,0,0-.34.53H43.59A2.23,2.23,0,0,0,43,34.8l7.6-13.29A3,3,0,0,0,51.11,21.57Zm-11.47,14H23.79a2.26,2.26,0,0,0-.31-.49L31.2,21.53a2,2,0,0,0,.43,0,2.14,2.14,0,0,0,.45-.05l7.78,13.66A2.46,2.46,0,0,0,39.64,35.57ZM21.81,34.29l-.18,0L13.7,20.49a2.37,2.37,0,0,0,.17-.36H29.6a2.1,2.1,0,0,0,.24.5L22.05,34.31Zm0-29.94a2.31,2.31,0,0,0,.46,0L30,17.93a1.88,1.88,0,0,0-.38.58H13.81a2.22,2.22,0,0,0-.25-.42L21.38,4.3A2,2,0,0,0,21.81,4.35ZM11.6,21.55l.23,0a2.12,2.12,0,0,0,.57-.08L20.18,35a2,2,0,0,0-.34.53H4.15a2.73,2.73,0,0,0-.26-.43Zm.72,29.84a1.75,1.75,0,0,0-.33,0l-.12,0L4,37.63a1.72,1.72,0,0,0,.21-.43H19.78a2,2,0,0,0,.3.56Zm39,0-.31,0-7.7-13.51a2.26,2.26,0,0,0,.39-.67H58.89a2.2,2.2,0,0,0,.23.46L51.3,51.36Z"/></g></g></svg>