<svg xmlns="http://www.w3.org/2000/svg" xmlns:xlink="http://www.w3.org/1999/xlink" viewBox="0 0 78.99 58.74"><defs><style>.cls-1{fill:url(#linear-gradient);}.cls-2{fill:url(#linear-gradient-2);}.cls-3{fill:url(#linear-gradient-3);}.cls-4{fill:url(#linear-gradient-4);}</style><linearGradient id="linear-gradient" y1="17.27" x2="78.99" y2="17.27" gradientUnits="userSpaceOnUse"><stop offset="0.15" stop-color="#662d8c"/><stop offset="0.28" stop-color="#6a2f8d"/><stop offset="0.42" stop-color="#77368f"/><stop offset="0.56" stop-color="#8c4093"/><stop offset="0.7" stop-color="#aa5098"/><stop offset="0.85" stop-color="#d0639f"/><stop offset="1" stop-color="#fe7aa7"/><stop offset="1" stop-color="#ff7ba7"/></linearGradient><linearGradient id="linear-gradient-2" x1="12.53" y1="48.56" x2="66.6" y2="48.56" xlink:href="#linear-gradient"/><linearGradient id="linear-gradient-3" x1="16.72" y1="49.15" x2="37.5" y2="49.15" xlink:href="#linear-gradient"/><linearGradient id="linear-gradient-4" x1="41.42" y1="49.15" x2="62.21" y2="49.15" xlink:href="#linear-gradient"/></defs><title>Icon 1</title><g id="Слой_2" data-name="Слой 2"><g id="Layer_1" data-name="Layer 1"><path class="cls-1" d="M67.52,32.21l-9-27.93c-.08-.25-1-3.1-3.55-4-1.68-.59-3.57-.21-5.63,1.15-6,4-8.94,4-9.91,4s-4,0-9.92-4C27.49.06,25.59-.33,23.92.27a6.53,6.53,0,0,0-3.56,4l-9,27.94H0v2.34H79V32.21Zm-53.69,0,1.38-4.28H44.1V25.6H16L22.59,5a4.17,4.17,0,0,1,2.12-2.5c.94-.34,2.14,0,3.53.89,4.41,2.93,8.07,4.36,11.22,4.37s6.8-1.44,11.21-4.37c1.4-.93,2.59-1.23,3.53-.89A4.28,4.28,0,0,1,56.33,5L63,25.6H47.22v2.33H63.7l1.38,4.28Z"/><path class="cls-2" d="M66.52,40l0-1.64L65,38.89a78.4,78.4,0,0,1-25.45,3.28,78.45,78.45,0,0,1-25.38-3.28l-1.56-.52,0,1.64c0,.77,0,2.76-.08,7.88-.06,3.44,1,6.14,3.15,8,4.26,3.72,11.23,2.72,11.53,2.68l.21,0,12.14-6.82,12.15,6.82.21,0a17.59,17.59,0,0,0,2.46.15c2.49,0,6.34-.44,9.07-2.83,2.15-1.88,3.21-4.58,3.15-8C66.52,42.77,66.51,40.78,66.52,40Zm-4.6,14.14c-3.09,2.71-8.37,2.28-9.45,2.16L39.56,49.07l-12.9,7.24c-1.08.12-6.34.56-9.45-2.16a7.7,7.7,0,0,1-2.35-6.22c.05-2.8.07-4.92.08-6.36a84.15,84.15,0,0,0,24.59,2.94,84.11,84.11,0,0,0,24.66-2.94c0,1.44,0,3.56.08,6.36A7.72,7.72,0,0,1,61.92,54.15Z"/><path class="cls-3" d="M18.33,44.74l-1.45-.55-.12,1.55c-.22,2.79.44,4.95,2,6.42a7.87,7.87,0,0,0,5.41,2c.44,0,.72,0,.77,0l.25,0L37.5,46.49l-4.52.2C32.89,46.7,24.44,47.05,18.33,44.74Zm6.08,7a5.79,5.79,0,0,1-4.07-1.29,4.6,4.6,0,0,1-1.26-3A42.16,42.16,0,0,0,29,49Z"/><path class="cls-4" d="M62,44.19l-1.45.55C54.48,47.05,46,46.7,46,46.69l-4.53-.2L53.76,54l.26,0s.32,0,.76,0a7.89,7.89,0,0,0,5.42-2c1.53-1.47,2.19-3.63,2-6.42Zm-3.45,6.28a5.83,5.83,0,0,1-4.07,1.3L50,49a42.24,42.24,0,0,0,9.88-1.54A4.59,4.59,0,0,1,58.59,50.47Z"/></g></g></svg>